<svg width="1136" height="182" viewBox="0 0 1136 182" fill="none" xmlns="http://www.w3.org/2000/svg">
<g clip-path="url(#clip0_191_234)">
<rect y="0.5" width="1136" height="181" rx="20" fill="#0B3D91"/>
<path d="M1019 45.5C1019 45.5 1021.21 66.0997 1029.8 74.6964C1038.4 83.293 1059 85.5 1059 85.5C1059 85.5 1038.4 87.707 1029.8 96.3036C1021.21 104.9 1019 125.5 1019 125.5C1019 125.5 1016.79 104.9 1008.2 96.3036C999.6 87.707 979 85.5 979 85.5C979 85.5 999.6 83.293 1008.2 74.6964C1016.79 66.0997 1019 45.5 1019 45.5Z" fill="white" fill-opacity="0.25"/>
<path d="M1089 93.5C1089 93.5 1091.21 114.1 1099.8 122.696C1108.4 131.293 1129 133.5 1129 133.5C1129 133.5 1108.4 135.707 1099.8 144.304C1091.21 152.9 1089 173.5 1089 173.5C1089 173.5 1086.79 152.9 1078.2 144.304C1069.6 135.707 1049 133.5 1049 133.5C1049 133.5 1069.6 131.293 1078.2 122.696C1086.79 114.1 1089 93.5 1089 93.5Z" fill="white" fill-opacity="0.1"/>
<path d="M948 122.5C948 122.5 950.207 152.885 958.804 165.565C967.4 178.245 988 181.5 988 181.5C988 181.5 967.4 184.755 958.804 197.435C950.207 210.115 948 240.5 948 240.5C948 240.5 945.793 210.115 937.196 197.435C928.6 184.755 908 181.5 908 181.5C908 181.5 928.6 178.245 937.196 165.565C945.793 152.885 948 122.5 948 122.5Z" fill="white" fill-opacity="0.1"/>
<path d="M1079.5 -58.5C1079.5 -58.5 1081.18 -28.1154 1087.74 -15.4354C1094.29 -2.75534 1110 0.499996 1110 0.499996C1110 0.499996 1094.29 3.75534 1087.74 16.4354C1081.18 29.1154 1079.5 59.5 1079.5 59.5C1079.5 59.5 1077.82 29.1154 1071.26 16.4354C1064.71 3.75534 1049 0.499996 1049 0.499996C1049 0.499996 1064.71 -2.75534 1071.26 -15.4354C1077.82 -28.1154 1079.5 -58.5 1079.5 -58.5Z" fill="white" fill-opacity="0.1"/>
<path d="M948.5 20.5C948.5 20.5 950.183 35.9498 956.738 42.3973C963.293 48.8447 979 50.5 979 50.5C979 50.5 963.293 52.1553 956.738 58.6027C950.183 65.0502 948.5 80.5 948.5 80.5C948.5 80.5 946.817 65.0502 940.262 58.6027C933.707 52.1553 918 50.5 918 50.5C918 50.5 933.707 48.8447 940.262 42.3973C946.817 35.9498 948.5 20.5 948.5 20.5Z" fill="white" fill-opacity="0.1"/>
</g>
<defs>
<clipPath id="clip0_191_234">
<rect y="0.5" width="1136" height="181" rx="20" fill="white"/>
</clipPath>
</defs>
</svg>
