<?xml version="1.0" encoding="us-ascii" standalone="no"?><svg xmlns="http://www.w3.org/2000/svg" xmlns:xlink="http://www.w3.org/1999/xlink" contentStyleType="text/css" height="609px" preserveAspectRatio="none" style="width:1251px;height:609px;background:#FFFFFF;" version="1.1" viewBox="0 0 1251 609" width="1251px" zoomAndPan="magnify"><defs/><g><!--cluster auth-service--><g id="cluster_auth-service"><path d="M8.5,6 L98.5,6 A3.75,3.75 0 0 1 101,8.5 L108,29.6094 L1051.5,29.6094 A2.5,2.5 0 0 1 1054,32.1094 L1054,485.5 A2.5,2.5 0 0 1 1051.5,488 L8.5,488 A2.5,2.5 0 0 1 6,485.5 L6,8.5 A2.5,2.5 0 0 1 8.5,6 " fill="none" style="stroke:#000000;stroke-width:1.5;"/><line style="stroke:#000000;stroke-width:1.5;" x1="6" x2="108" y1="29.6094" y2="29.6094"/><text fill="#000000" font-family="sans-serif" font-size="14" font-weight="bold" lengthAdjust="spacing" textLength="89" x="10" y="22.5332">auth-service</text></g><!--cluster Database Tables--><g id="cluster_Database Tables"><path d="M55.5,512 L171.5,512 A3.75,3.75 0 0 1 174,514.5 L181,535.6094 L483.5,535.6094 A2.5,2.5 0 0 1 486,538.1094 L486,599.5 A2.5,2.5 0 0 1 483.5,602 L55.5,602 A2.5,2.5 0 0 1 53,599.5 L53,514.5 A2.5,2.5 0 0 1 55.5,512 " fill="none" style="stroke:#000000;stroke-width:1.5;"/><line style="stroke:#000000;stroke-width:1.5;" x1="53" x2="181" y1="535.6094" y2="535.6094"/><text fill="#000000" font-family="sans-serif" font-size="14" font-weight="bold" lengthAdjust="spacing" textLength="115" x="57" y="528.5332">Database Tables</text></g><!--cluster Security Components--><g id="cluster_Security Components"><path d="M1080.5,104 L1231.5,104 A3.75,3.75 0 0 1 1234,106.5 L1241,127.6094 L1241.5,127.6094 A2.5,2.5 0 0 1 1244,130.1094 L1244,191.5 A2.5,2.5 0 0 1 1241.5,194 L1080.5,194 A2.5,2.5 0 0 1 1078,191.5 L1078,106.5 A2.5,2.5 0 0 1 1080.5,104 " fill="none" style="stroke:#000000;stroke-width:1.5;"/><line style="stroke:#000000;stroke-width:1.5;" x1="1078" x2="1241" y1="127.6094" y2="127.6094"/><text fill="#000000" font-family="sans-serif" font-size="14" font-weight="bold" lengthAdjust="spacing" textLength="150" x="1082" y="120.5332">Security Components</text></g><!--entity Client (Web/Mobile)--><g id="elem_Client (Web/Mobile)"><rect fill="#F1F1F1" height="37.6094" rx="2.5" ry="2.5" style="stroke:#181818;stroke-width:0.5;" width="144" x="602" y="42"/><text fill="#000000" font-family="sans-serif" font-size="14" lengthAdjust="spacing" textLength="124" x="612" y="66.5332">Client (Web/Mobile)</text></g><!--entity SignupController--><g id="elem_SignupController"><rect fill="#F1F1F1" height="37.6094" rx="2.5" ry="2.5" style="stroke:#181818;stroke-width:0.5;" width="126" x="454" y="140"/><text fill="#000000" font-family="sans-serif" font-size="14" lengthAdjust="spacing" textLength="106" x="464" y="164.5332">SignupController</text></g><!--entity AuthController--><g id="elem_AuthController"><rect fill="#F1F1F1" height="37.6094" rx="2.5" ry="2.5" style="stroke:#181818;stroke-width:0.5;" width="111" x="618.5" y="140"/><text fill="#000000" font-family="sans-serif" font-size="14" lengthAdjust="spacing" textLength="91" x="628.5" y="164.5332">AuthController</text></g><!--entity TokenController--><g id="elem_TokenController"><rect fill="#F1F1F1" height="37.6094" rx="2.5" ry="2.5" style="stroke:#181818;stroke-width:0.5;" width="122" x="766" y="140"/><text fill="#000000" font-family="sans-serif" font-size="14" lengthAdjust="spacing" textLength="102" x="776" y="164.5332">TokenController</text></g><!--entity SignupService--><g id="elem_SignupService"><rect fill="#F1F1F1" height="37.6094" rx="2.5" ry="2.5" style="stroke:#181818;stroke-width:0.5;" width="111" x="457.5" y="238"/><text fill="#000000" font-family="sans-serif" font-size="14" lengthAdjust="spacing" textLength="91" x="467.5" y="262.5332">SignupService</text></g><!--entity AuthService--><g id="elem_AuthService"><rect fill="#F1F1F1" height="37.6094" rx="2.5" ry="2.5" style="stroke:#181818;stroke-width:0.5;" width="96" x="626" y="238"/><text fill="#000000" font-family="sans-serif" font-size="14" lengthAdjust="spacing" textLength="76" x="636" y="262.5332">AuthService</text></g><!--entity TokenService--><g id="elem_TokenService"><rect fill="#F1F1F1" height="37.6094" rx="2.5" ry="2.5" style="stroke:#181818;stroke-width:0.5;" width="107" x="776.5" y="336"/><text fill="#000000" font-family="sans-serif" font-size="14" lengthAdjust="spacing" textLength="87" x="786.5" y="360.5332">TokenService</text></g><!--entity UserRepository--><g id="elem_UserRepository"><rect fill="#F1F1F1" height="37.6094" rx="2.5" ry="2.5" style="stroke:#181818;stroke-width:0.5;" width="117" x="454.5" y="336"/><text fill="#000000" font-family="sans-serif" font-size="14" lengthAdjust="spacing" textLength="97" x="464.5" y="360.5332">UserRepository</text></g><!--entity VerificationDocumentRepository--><g id="elem_VerificationDocumentRepository"><rect fill="#F1F1F1" height="37.6094" rx="2.5" ry="2.5" style="stroke:#181818;stroke-width:0.5;" width="222" x="22" y="336"/><text fill="#000000" font-family="sans-serif" font-size="14" lengthAdjust="spacing" textLength="202" x="32" y="360.5332">VerificationDocumentRepository</text></g><!--entity FileStorageService--><g id="elem_FileStorageService"><rect fill="#F1F1F1" height="37.6094" rx="2.5" ry="2.5" style="stroke:#181818;stroke-width:0.5;" width="140" x="279" y="336"/><text fill="#000000" font-family="sans-serif" font-size="14" lengthAdjust="spacing" textLength="120" x="289" y="360.5332">FileStorageService</text></g><!--entity PasswordEncoder--><g id="elem_PasswordEncoder"><rect fill="#F1F1F1" height="37.6094" rx="2.5" ry="2.5" style="stroke:#181818;stroke-width:0.5;" width="134" x="607" y="336"/><text fill="#000000" font-family="sans-serif" font-size="14" lengthAdjust="spacing" textLength="114" x="617" y="360.5332">PasswordEncoder</text></g><!--entity JwtConfig--><g id="elem_JwtConfig"><rect fill="#F1F1F1" height="37.6094" rx="2.5" ry="2.5" style="stroke:#181818;stroke-width:0.5;" width="80" x="651" y="434"/><text fill="#000000" font-family="sans-serif" font-size="14" lengthAdjust="spacing" textLength="60" x="661" y="458.5332">JwtConfig</text></g><!--entity TokenRepository--><g id="elem_TokenRepository"><rect fill="#F1F1F1" height="37.6094" rx="2.5" ry="2.5" style="stroke:#181818;stroke-width:0.5;" width="128" x="766" y="434"/><text fill="#000000" font-family="sans-serif" font-size="14" lengthAdjust="spacing" textLength="108" x="776" y="458.5332">TokenRepository</text></g><!--entity FileStorageConfig--><g id="elem_FileStorageConfig"><rect fill="#F1F1F1" height="37.6094" rx="2.5" ry="2.5" style="stroke:#181818;stroke-width:0.5;" width="134" x="444" y="434"/><text fill="#000000" font-family="sans-serif" font-size="14" lengthAdjust="spacing" textLength="114" x="454" y="458.5332">FileStorageConfig</text></g><!--entity JwtAuthenticationFilter--><g id="elem_JwtAuthenticationFilter"><rect fill="#F1F1F1" height="37.6094" rx="2.5" ry="2.5" style="stroke:#181818;stroke-width:0.5;" width="161" x="876.5" y="238"/><text fill="#000000" font-family="sans-serif" font-size="14" lengthAdjust="spacing" textLength="141" x="886.5" y="262.5332">JwtAuthenticationFilter</text></g><!--entity SecurityContext--><g id="elem_SecurityContext"><rect fill="#F1F1F1" height="37.6094" rx="2.5" ry="2.5" style="stroke:#181818;stroke-width:0.5;" width="119" x="918.5" y="336"/><text fill="#000000" font-family="sans-serif" font-size="14" lengthAdjust="spacing" textLength="99" x="928.5" y="360.5332">SecurityContext</text></g><!--entity users--><g id="elem_users"><rect fill="#F1F1F1" height="37.6094" rx="2.5" ry="2.5" style="stroke:#181818;stroke-width:0.5;" width="55" x="269.5" y="548"/><text fill="#000000" font-family="sans-serif" font-size="14" lengthAdjust="spacing" textLength="35" x="279.5" y="572.5332">users</text></g><!--entity verification_documents--><g id="elem_verification_documents"><rect fill="#F1F1F1" height="37.6094" rx="2.5" ry="2.5" style="stroke:#181818;stroke-width:0.5;" width="165" x="69.5" y="548"/><text fill="#000000" font-family="sans-serif" font-size="14" lengthAdjust="spacing" textLength="145" x="79.5" y="572.5332">verification_documents</text></g><!--entity token_registry--><g id="elem_token_registry"><rect fill="#F1F1F1" height="37.6094" rx="2.5" ry="2.5" style="stroke:#181818;stroke-width:0.5;" width="110" x="360" y="548"/><text fill="#000000" font-family="sans-serif" font-size="14" lengthAdjust="spacing" textLength="90" x="370" y="572.5332">token_registry</text></g><!--entity SecurityConfig--><g id="elem_SecurityConfig"><rect fill="#F1F1F1" height="37.6094" rx="2.5" ry="2.5" style="stroke:#181818;stroke-width:0.5;" width="112" x="1094" y="140"/><text fill="#000000" font-family="sans-serif" font-size="14" lengthAdjust="spacing" textLength="92" x="1104" y="164.5332">SecurityConfig</text></g><!--entity File System Storage--><g id="elem_File System Storage"><rect fill="#F1F1F1" height="37.6094" rx="2.5" ry="2.5" style="stroke:#181818;stroke-width:0.5;" width="147" x="505.5" y="548"/><text fill="#000000" font-family="sans-serif" font-size="14" lengthAdjust="spacing" textLength="127" x="515.5" y="572.5332">File System Storage</text></g><!--link Client (Web/Mobile) to SignupController--><g id="link_Client (Web/Mobile)_SignupController"><path d="M631.57,80.02 C621.35,84.83 610.62,90.29 601,96 C578.87,109.14 560.1469,123.0464 543.6669,136.1464 " fill="none" id="Client (Web/Mobile)-to-SignupController" style="stroke:#181818;stroke-width:1.0;"/><polygon fill="#181818" points="538.97,139.88,548.5043,137.4109,542.8841,136.7687,543.5263,131.1484,538.97,139.88" style="stroke:#181818;stroke-width:1.0;"/></g><!--link Client (Web/Mobile) to AuthController--><g id="link_Client (Web/Mobile)_AuthController"><path d="M674,80.06 C674,97.11 674,116.56 674,133.7 " fill="none" id="Client (Web/Mobile)-to-AuthController" style="stroke:#181818;stroke-width:1.0;"/><polygon fill="#181818" points="674,139.7,678,130.7,674,134.7,670,130.7,674,139.7" style="stroke:#181818;stroke-width:1.0;"/></g><!--link Client (Web/Mobile) to TokenController--><g id="link_Client (Web/Mobile)_TokenController"><path d="M716.91,80.04 C727.01,84.81 737.57,90.25 747,96 C768.3,108.99 785.9986,122.7875 801.6186,135.9275 " fill="none" id="Client (Web/Mobile)-to-TokenController" style="stroke:#181818;stroke-width:1.0;"/><polygon fill="#181818" points="806.21,139.79,801.8978,130.9353,802.3838,136.5713,796.7479,137.0573,806.21,139.79" style="stroke:#181818;stroke-width:1.0;"/></g><!--link SignupController to SignupService--><g id="link_SignupController_SignupService"><path d="M516.25,178.06 C515.54,195.11 514.7318,214.5653 514.0118,231.7053 " fill="none" id="SignupController-to-SignupService" style="stroke:#181818;stroke-width:1.0;"/><polygon fill="#181818" points="513.76,237.7,518.1342,228.8758,513.9698,232.7044,510.1413,228.5401,513.76,237.7" style="stroke:#181818;stroke-width:1.0;"/></g><!--link AuthController to AuthService--><g id="link_AuthController_AuthService"><path d="M674,178.06 C674,195.11 674,214.56 674,231.7 " fill="none" id="AuthController-to-AuthService" style="stroke:#181818;stroke-width:1.0;"/><polygon fill="#181818" points="674,237.7,678,228.7,674,232.7,670,228.7,674,237.7" style="stroke:#181818;stroke-width:1.0;"/></g><!--link TokenController to TokenService--><g id="link_TokenController_TokenService"><path d="M827.28,178.25 C827.86,215.32 829.0574,293.0307 829.6274,329.9407 " fill="none" id="TokenController-to-TokenService" style="stroke:#181818;stroke-width:1.0;"/><polygon fill="#181818" points="829.72,335.94,833.5806,326.8793,829.6428,330.9406,825.5815,327.0028,829.72,335.94" style="stroke:#181818;stroke-width:1.0;"/></g><!--link SignupService to UserRepository--><g id="link_SignupService_UserRepository"><path d="M513,276.06 C513,293.11 513,312.56 513,329.7 " fill="none" id="SignupService-to-UserRepository" style="stroke:#181818;stroke-width:1.0;"/><polygon fill="#181818" points="513,335.7,517,326.7,513,330.7,509,326.7,513,335.7" style="stroke:#181818;stroke-width:1.0;"/></g><!--link SignupService to VerificationDocumentRepository--><g id="link_SignupService_VerificationDocumentRepository"><path d="M457.34,272.06 C390.34,288.99 283.5271,315.97 210.1971,334.5 " fill="none" id="SignupService-to-VerificationDocumentRepository" style="stroke:#181818;stroke-width:1.0;"/><polygon fill="#181818" points="204.38,335.97,214.0857,337.6432,209.2276,334.745,212.1258,329.887,204.38,335.97" style="stroke:#181818;stroke-width:1.0;"/></g><!--link SignupService to FileStorageService--><g id="link_SignupService_FileStorageService"><path d="M482.15,276.06 C452.93,293.17 414.4384,315.6994 385.1684,332.8294 " fill="none" id="SignupService-to-FileStorageService" style="stroke:#181818;stroke-width:1.0;"/><polygon fill="#181818" points="379.99,335.86,389.7779,334.7664,384.3053,333.3345,385.7372,327.8619,379.99,335.86" style="stroke:#181818;stroke-width:1.0;"/></g><!--link SignupService to PasswordEncoder--><g id="link_SignupService_PasswordEncoder"><path d="M543.28,276.06 C571.98,293.17 609.686,315.6581 638.426,332.7881 " fill="none" id="SignupService-to-PasswordEncoder" style="stroke:#181818;stroke-width:1.0;"/><polygon fill="#181818" points="643.58,335.86,637.897,327.8161,639.285,333.3001,633.8011,334.6881,643.58,335.86" style="stroke:#181818;stroke-width:1.0;"/></g><!--link AuthService to UserRepository--><g id="link_AuthService_UserRepository"><path d="M643.72,276.06 C615.02,293.17 577.314,315.6581 548.574,332.7881 " fill="none" id="AuthService-to-UserRepository" style="stroke:#181818;stroke-width:1.0;"/><polygon fill="#181818" points="543.42,335.86,553.1989,334.6881,547.715,333.3001,549.103,327.8161,543.42,335.86" style="stroke:#181818;stroke-width:1.0;"/></g><!--link AuthService to PasswordEncoder--><g id="link_AuthService_PasswordEncoder"><path d="M674,276.06 C674,293.11 674,312.56 674,329.7 " fill="none" id="AuthService-to-PasswordEncoder" style="stroke:#181818;stroke-width:1.0;"/><polygon fill="#181818" points="674,335.7,678,326.7,674,330.7,670,326.7,674,335.7" style="stroke:#181818;stroke-width:1.0;"/></g><!--link AuthService to TokenService--><g id="link_AuthService_TokenService"><path d="M703.34,276.06 C731.14,293.17 767.5699,315.5857 795.4099,332.7157 " fill="none" id="AuthService-to-TokenService" style="stroke:#181818;stroke-width:1.0;"/><polygon fill="#181818" points="800.52,335.86,794.951,327.7368,796.2616,333.2398,790.7586,334.5503,800.52,335.86" style="stroke:#181818;stroke-width:1.0;"/></g><!--link TokenService to JwtConfig--><g id="link_TokenService_JwtConfig"><path d="M803.86,374.06 C779.16,391.11 747.2465,413.1496 722.4365,430.2896 " fill="none" id="TokenService-to-JwtConfig" style="stroke:#181818;stroke-width:1.0;"/><polygon fill="#181818" points="717.5,433.7,727.1784,431.8754,721.6138,430.858,722.6312,425.2934,717.5,433.7" style="stroke:#181818;stroke-width:1.0;"/></g><!--link TokenService to TokenRepository--><g id="link_TokenService_TokenRepository"><path d="M830,374.06 C830,391.11 830,410.56 830,427.7 " fill="none" id="TokenService-to-TokenRepository" style="stroke:#181818;stroke-width:1.0;"/><polygon fill="#181818" points="830,433.7,834,424.7,830,428.7,826,424.7,830,433.7" style="stroke:#181818;stroke-width:1.0;"/></g><!--link FileStorageService to FileStorageConfig--><g id="link_FileStorageService_FileStorageConfig"><path d="M379.47,374.06 C408.34,391.17 446.3076,413.6722 475.2276,430.8022 " fill="none" id="FileStorageService-to-FileStorageConfig" style="stroke:#181818;stroke-width:1.0;"/><polygon fill="#181818" points="480.39,433.86,474.685,425.8317,476.088,431.3118,470.6079,432.7149,480.39,433.86" style="stroke:#181818;stroke-width:1.0;"/></g><!--link JwtAuthenticationFilter to TokenService--><g id="link_JwtAuthenticationFilter_TokenService"><path d="M933.11,276.06 C910.55,293.11 881.666,314.9414 858.996,332.0814 " fill="none" id="JwtAuthenticationFilter-to-TokenService" style="stroke:#181818;stroke-width:1.0;"/><polygon fill="#181818" points="854.21,335.7,863.8014,333.4629,858.1984,332.6845,858.9767,327.0815,854.21,335.7" style="stroke:#181818;stroke-width:1.0;"/></g><!--link JwtAuthenticationFilter to SecurityContext--><g id="link_JwtAuthenticationFilter_SecurityContext"><path d="M960.95,276.06 C964.68,293.11 968.9676,312.6986 972.7176,329.8386 " fill="none" id="JwtAuthenticationFilter-to-SecurityContext" style="stroke:#181818;stroke-width:1.0;"/><polygon fill="#181818" points="974,335.7,975.984,326.053,972.9313,330.8155,968.1689,327.7629,974,335.7" style="stroke:#181818;stroke-width:1.0;"/></g><!--link UserRepository to users--><g id="link_UserRepository_users"><path d="M489.02,374.16 C454.72,400.71 390.56,452.58 343,504 C330.26,517.78 321.0913,530.0803 312.3213,542.8803 " fill="none" id="UserRepository-to-users" style="stroke:#181818;stroke-width:1.0;"/><polygon fill="#181818" points="308.93,547.83,317.3167,542.6664,311.7561,543.7053,310.7172,538.1446,308.93,547.83" style="stroke:#181818;stroke-width:1.0;"/></g><!--link VerificationDocumentRepository to verification_documents--><g id="link_VerificationDocumentRepository_verification_documents"><path d="M134.65,374.27 C138.26,414.08 146.2403,502.3043 149.8203,541.9443 " fill="none" id="VerificationDocumentRepository-to-verification_documents" style="stroke:#181818;stroke-width:1.0;"/><polygon fill="#181818" points="150.36,547.92,153.5343,538.5967,149.9103,542.9403,145.5667,539.3163,150.36,547.92" style="stroke:#181818;stroke-width:1.0;"/></g><!--link TokenRepository to token_registry--><g id="link_TokenRepository_token_registry"><path d="M802.76,472.04 C787.61,481.05 768.01,491.05 749,496 C720.92,503.3 515.08,493.58 488,504 C464.57,513.02 447.4062,528.5214 433.9662,543.3714 " fill="none" id="TokenRepository-to-token_registry" style="stroke:#181818;stroke-width:1.0;"/><polygon fill="#181818" points="429.94,547.82,438.945,543.8313,433.2952,544.1129,433.0136,538.463,429.94,547.82" style="stroke:#181818;stroke-width:1.0;"/></g><!--link SecurityConfig to JwtAuthenticationFilter--><g id="link_SecurityConfig_JwtAuthenticationFilter"><path d="M1113.7,178.06 C1079.3,195.17 1033.2925,218.0586 998.8425,235.1886 " fill="none" id="SecurityConfig-to-JwtAuthenticationFilter" style="stroke:#181818;stroke-width:1.0;"/><polygon fill="#181818" points="993.47,237.86,1003.3097,237.4345,997.9471,235.6338,999.7478,230.2712,993.47,237.86" style="stroke:#181818;stroke-width:1.0;"/></g><!--link FileStorageConfig to File System Storage--><g id="link_FileStorageConfig_File System Storage"><path d="M522.23,472.49 C534.9,493.37 552.2754,521.9917 564.8654,542.7217 " fill="none" id="FileStorageConfig-to-File System Storage" style="stroke:#181818;stroke-width:1.0;"/><polygon fill="#181818" points="567.98,547.85,566.727,538.0812,565.3845,543.5764,559.8893,542.2339,567.98,547.85" style="stroke:#181818;stroke-width:1.0;"/></g><!--SRC=[bLJBJiCm4BpdAwoUu53n1qYeXGCI4Y853bLKEUusjPhOaRrfYH3_pgPE6ZSFMdAqPsTdPyUnEwboRdZ6XCvohK1XY6KAp810hf8KWY3dOiSJO1DUu7PgmUobW0dx3XXzoraggOZTV49yzw9ZcS9jnARJUxOCPQAAVAOL6fscOA9B1G_4_m_uGkz0-NXNq6lhgmcT-fgxqx1LSGxhDlBQdu1-x-RGuTx9iJV8jPMeJHcD0p_0o8qK7ALMSosAZEQ-gl29J0a9Gqiw5pu4VkNM7hHPFogXrwrh_jH_wEx3UdmZk26xpiuSxFc0vFH69j4ev7ZaAtF80HTwzZJKhe9wLJh9vjfrGkB8Vgye244KHc9P9GM-C0f-lBSpvyXZRe4jU9o2FJsVWbosDVtU2y1gNIUWkSHApif08YrMGnDvTqLEHiruAKuEFDQoPxA3TqMqypN3irdp7sbdz8nf5zjpwtWwd2Ol5DNO7RvJS0Pt4mpilyq52qkBaB7wFWf-0G00]--></g></svg>