<svg xmlns="http://www.w3.org/2000/svg" xmlns:xlink="http://www.w3.org/1999/xlink" contentStyleType="text/css" height="539px" preserveAspectRatio="none" style="width:537px;height:539px;background:#FFFFFF;" version="1.1" viewBox="0 0 537 539" width="537px" zoomAndPan="magnify"><defs/><g><rect fill="#FFFFFF" height="233.9639" style="stroke:#000000;stroke-width:1.0;" width="10" x="188.2559" y="114.814"/><rect fill="#FFFFFF" height="152.3652" style="stroke:#000000;stroke-width:1.0;" width="515.1919" x="15" y="189.4126"/><rect fill="#FFFFFF" height="45.168" style="stroke:none;stroke-width:1.0;" width="515.1919" x="15" y="296.6099"/><line style="stroke:#000000;stroke-width:1.0;" x1="48" x2="48" y1="83.0146" y2="457.7744"/><line style="stroke:#000000;stroke-width:1.0;" x1="193.207" x2="193.207" y1="83.0146" y2="457.7744"/><line style="stroke:#000000;stroke-width:1.0;" x1="331.561" x2="331.561" y1="83.0146" y2="457.7744"/><line style="stroke:#000000;stroke-width:1.0;" x1="456.1226" x2="456.1226" y1="83.0146" y2="457.7744"/><text fill="#000000" font-family="Verdana" font-size="14" lengthAdjust="spacing" textLength="40.1748" x="25" y="80.0752">Client</text><ellipse cx="48.0874" cy="14" fill="#FFFFFF" rx="8" ry="8" style="stroke:#000000;stroke-width:1.0;"/><path d="M48.0874,22 L48.0874,49 M35.0874,30 L61.0874,30 M48.0874,49 L35.0874,64 M48.0874,49 L61.0874,64 " fill="none" style="stroke:#000000;stroke-width:1.0;"/><text fill="#000000" font-family="Verdana" font-size="14" lengthAdjust="spacing" textLength="40.1748" x="25" y="470.8496">Client</text><ellipse cx="48.0874" cy="482.7891" fill="#FFFFFF" rx="8" ry="8" style="stroke:#000000;stroke-width:1.0;"/><path d="M48.0874,490.7891 L48.0874,517.7891 M35.0874,498.7891 L61.0874,498.7891 M48.0874,517.7891 L35.0874,532.7891 M48.0874,517.7891 L61.0874,532.7891 " fill="none" style="stroke:#000000;stroke-width:1.0;"/><rect fill="#FFFFFF" height="31.0146" rx="2.5" ry="2.5" style="stroke:#000000;stroke-width:1.0;" width="104.0977" x="141.207" y="51"/><text fill="#000000" font-family="Verdana" font-size="14" lengthAdjust="spacing" textLength="90.0977" x="148.207" y="72.0752">API Gateway</text><rect fill="#FFFFFF" height="31.0146" rx="2.5" ry="2.5" style="stroke:#000000;stroke-width:1.0;" width="104.0977" x="141.207" y="456.7744"/><text fill="#000000" font-family="Verdana" font-size="14" lengthAdjust="spacing" textLength="90.0977" x="148.207" y="477.8496">API Gateway</text><rect fill="#FFFFFF" height="31.0146" rx="2.5" ry="2.5" style="stroke:#000000;stroke-width:1.0;" width="80.5615" x="291.561" y="51"/><text fill="#000000" font-family="Verdana" font-size="14" lengthAdjust="spacing" textLength="66.5615" x="298.561" y="72.0752">JWT Auth</text><rect fill="#FFFFFF" height="31.0146" rx="2.5" ry="2.5" style="stroke:#000000;stroke-width:1.0;" width="80.5615" x="291.561" y="456.7744"/><text fill="#000000" font-family="Verdana" font-size="14" lengthAdjust="spacing" textLength="66.5615" x="298.561" y="477.8496">JWT Auth</text><rect fill="#FFFFFF" height="31.0146" rx="2.5" ry="2.5" style="stroke:#000000;stroke-width:1.0;" width="108.0693" x="402.1226" y="51"/><text fill="#000000" font-family="Verdana" font-size="14" lengthAdjust="spacing" textLength="94.0693" x="409.1226" y="72.0752">Microservices</text><rect fill="#FFFFFF" height="31.0146" rx="2.5" ry="2.5" style="stroke:#000000;stroke-width:1.0;" width="108.0693" x="402.1226" y="456.7744"/><text fill="#000000" font-family="Verdana" font-size="14" lengthAdjust="spacing" textLength="94.0693" x="409.1226" y="477.8496">Microservices</text><rect fill="#FFFFFF" height="233.9639" style="stroke:#000000;stroke-width:1.0;" width="10" x="188.2559" y="114.814"/><polygon fill="#000000" points="176.2559,110.814,186.2559,114.814,176.2559,118.814,180.2559,114.814" style="stroke:#000000;stroke-width:1.0;"/><line style="stroke:#000000;stroke-width:1.0;" x1="48.0874" x2="182.2559" y1="114.814" y2="114.814"/><text fill="#000000" font-family="Verdana" font-size="13" lengthAdjust="spacing" textLength="116.2192" x="55.0874" y="110.0845">Request with JWT</text><polygon fill="#000000" points="319.8418,140.6133,329.8418,144.6133,319.8418,148.6133,323.8418,144.6133" style="stroke:#000000;stroke-width:1.0;"/><line style="stroke:#000000;stroke-width:1.0;" x1="198.2559" x2="325.8418" y1="144.6133" y2="144.6133"/><text fill="#000000" font-family="Verdana" font-size="13" lengthAdjust="spacing" textLength="82.145" x="205.2559" y="139.8838">Verify Token</text><polygon fill="#000000" points="209.2559,170.4126,199.2559,174.4126,209.2559,178.4126,205.2559,174.4126" style="stroke:#000000;stroke-width:1.0;"/><line style="stroke:#000000;stroke-width:1.0;stroke-dasharray:2.0,2.0;" x1="203.2559" x2="330.8418" y1="174.4126" y2="174.4126"/><text fill="#000000" font-family="Verdana" font-size="13" lengthAdjust="spacing" textLength="109.5859" x="215.2559" y="169.6831">Validation Result</text><path d="M15,189.4126 L79.0493,189.4126 L79.0493,197.2119 L69.0493,207.2119 L15,207.2119 L15,189.4126 " fill="#FFFFFF" style="stroke:#000000;stroke-width:1.0;"/><rect fill="none" height="152.3652" style="stroke:#000000;stroke-width:1.0;" width="515.1919" x="15" y="189.4126"/><text fill="#000000" font-family="Verdana" font-size="13" font-weight="bold" lengthAdjust="spacing" textLength="19.0493" x="30" y="203.4824">alt</text><text fill="#000000" font-family="Verdana" font-size="11" font-weight="bold" lengthAdjust="spacing" textLength="84.2456" x="94.0493" y="202.4717">[Valid Token]</text><polygon fill="#000000" points="444.1572,225.0112,454.1572,229.0112,444.1572,233.0112,448.1572,229.0112" style="stroke:#000000;stroke-width:1.0;"/><line style="stroke:#000000;stroke-width:1.0;" x1="198.2559" x2="450.1572" y1="229.0112" y2="229.0112"/><text fill="#000000" font-family="Verdana" font-size="13" lengthAdjust="spacing" textLength="204.0962" x="205.2559" y="224.2817">Forward to Appropriate Service</text><polygon fill="#000000" points="209.2559,254.8105,199.2559,258.8105,209.2559,262.8105,205.2559,258.8105" style="stroke:#000000;stroke-width:1.0;"/><line style="stroke:#000000;stroke-width:1.0;stroke-dasharray:2.0,2.0;" x1="203.2559" x2="455.1572" y1="258.8105" y2="258.8105"/><text fill="#000000" font-family="Verdana" font-size="13" lengthAdjust="spacing" textLength="62.2896" x="215.2559" y="254.0811">Response</text><polygon fill="#000000" points="59.0874,284.6099,49.0874,288.6099,59.0874,292.6099,55.0874,288.6099" style="stroke:#000000;stroke-width:1.0;"/><line style="stroke:#000000;stroke-width:1.0;stroke-dasharray:2.0,2.0;" x1="53.0874" x2="187.2559" y1="288.6099" y2="288.6099"/><text fill="#000000" font-family="Verdana" font-size="13" lengthAdjust="spacing" textLength="110.7666" x="65.0874" y="283.8804">Return Response</text><line style="stroke:#000000;stroke-width:1.0;stroke-dasharray:2.0,2.0;" x1="15" x2="530.1919" y1="297.6099" y2="297.6099"/><text fill="#000000" font-family="Verdana" font-size="11" font-weight="bold" lengthAdjust="spacing" textLength="96.8354" x="20" y="308.6689">[Invalid Token]</text><polygon fill="#000000" points="59.0874,329.7778,49.0874,333.7778,59.0874,337.7778,55.0874,333.7778" style="stroke:#000000;stroke-width:1.0;"/><line style="stroke:#000000;stroke-width:1.0;stroke-dasharray:2.0,2.0;" x1="53.0874" x2="187.2559" y1="333.7778" y2="333.7778"/><text fill="#000000" font-family="Verdana" font-size="13" lengthAdjust="spacing" textLength="116.1685" x="65.0874" y="329.0483">401 Unauthorized</text><path d="M198,353.7778 L198,441.7778 L491,441.7778 L491,363.7778 L481,353.7778 L198,353.7778 " fill="#FFFFFF" style="stroke:#000000;stroke-width:1.0;"/><path d="M481,353.7778 L481,363.7778 L491,363.7778 L481,353.7778 " fill="#FFFFFF" style="stroke:#000000;stroke-width:1.0;"/><text fill="#000000" font-family="Verdana" font-size="13" lengthAdjust="spacing" textLength="104.8887" x="204" y="371.8477">Routes by path:</text><text fill="#000000" font-family="Verdana" font-size="13" lengthAdjust="spacing" textLength="162.8491" x="204" y="387.647">/auth/** &#8594; Auth Service</text><text fill="#000000" font-family="Verdana" font-size="13" lengthAdjust="spacing" textLength="184.7739" x="204" y="403.4463">/admin/** &#8594; Admin Service</text><text fill="#000000" font-family="Verdana" font-size="13" lengthAdjust="spacing" textLength="233.4224" x="204" y="419.2456">/parents-kids/** &#8594; Parents Service</text><text fill="#000000" font-family="Verdana" font-size="13" lengthAdjust="spacing" textLength="272.8286" x="204" y="435.0449">/teachers-courses/** &#8594; Teaching Service</text><!--SRC=[TP7FIiD04CRl-nHZZuLG1Kyv24LGAWYbrdfUisCpDDrTToSjzG5y01_H9t4sIME2cDFy-SqttsmkkCGzWgyqMQLqmIx0vBOYj3m17Q4DbTU1gI2lBSDalbp0lMOywbF3TF4OUdXPmxpciY4a6NSVgGWkOZXGWR51djf4gNOZP3TdtHnM-5vZP3WIbusM-AI3TFlLgWlIc00vR33GsmdMReTM9I_PK72ZApAQoLdHZdN5Sdh5RRcR0Va6efsz7EvSEEfWW1tClG_E1qf6plRJM1UFLyeUxsp4iR0GxRq9u3hONmwhYB2mX_yy3KQlBw_WsMfvRHVe0ur2QvGo-FUPh9CiqBPaS6zz6M3bQiO8hoVmcijSAhCaDvjEuVlpg_cHWnDdskp9zisK3BlofyLMp7PauXbQjhKXnkAln12pmjKXOe-kKvtijcVb6aZ6rGy0]--></g></svg>