<svg xmlns="http://www.w3.org/2000/svg" xmlns:xlink="http://www.w3.org/1999/xlink" contentStyleType="text/css" height="350px" preserveAspectRatio="none" style="width:925px;height:350px;background:#FFFFFF;" version="1.1" viewBox="0 0 925 350" width="925px" zoomAndPan="magnify"><defs/><g><!--cluster client--><g id="cluster_client"><rect fill="#FFFFFF" height="44.5" rx="1.25" ry="1.25" style="stroke:#000000;stroke-width:0.5;" width="80" x="601.5" y="6"/><text fill="#000000" font-family="Verdana" font-size="7" font-weight="bold" lengthAdjust="spacing" textLength="69.2446" x="606.8777" y="14.0376">Client Application</text></g><!--cluster gateway--><g id="cluster_gateway"><rect fill="#FFFFFF" height="44.5" rx="1.25" ry="1.25" style="stroke:#000000;stroke-width:0.5;" width="105" x="589" y="75"/><text fill="#000000" font-family="Verdana" font-size="7" font-weight="bold" lengthAdjust="spacing" textLength="51.0576" x="615.9712" y="83.0376">API Gateway</text></g><!--cluster auth--><g id="cluster_auth"><rect fill="#FFFFFF" height="44.5" rx="1.25" ry="1.25" style="stroke:#000000;stroke-width:0.5;" width="245" x="6" y="144"/><text fill="#000000" font-family="Verdana" font-size="7" font-weight="bold" lengthAdjust="spacing" textLength="89.1851" x="83.9075" y="152.0376">Authentication Service</text></g><!--cluster parentkid--><g id="cluster_parentkid"><rect fill="#FFFFFF" height="44.5" rx="1.25" ry="1.25" style="stroke:#000000;stroke-width:0.5;" width="427" x="263" y="144"/><text fill="#000000" font-family="Verdana" font-size="7" font-weight="bold" lengthAdjust="spacing" textLength="89.1235" x="431.9382" y="152.0376">Parents &amp; Kids Service</text></g><!--cluster nasa--><g id="cluster_nasa"><path d="M771.0354,290.1194 C774.2291,285.3388 778.6533,287.1349 780.6214,291.4159 C784.0338,285.9014 788.1556,286.8318 791.4681,291.5222 C793.9431,285.6408 797.7208,286.0425 801.6905,289.9634 C804.8226,286.3436 808.3326,286.3111 810.0677,291.3197 C812.7627,287.0329 816.3577,287.1559 819.4666,290.8311 C821.7531,285.0606 827.2308,285.4256 830.3079,290.0028 C833.8673,284.9011 838.0417,285.1194 840.6557,290.9015 C842.8368,286.6194 846.6453,287.0526 849.1888,290.5015 C852.8916,284.6958 857.4537,285.1033 860.2757,291.3142 C862.1427,286.5292 865.06,285.8273 868.5094,289.8319 C871.6515,284.3488 876.2232,284.6115 878.9698,290.2054 C882.0933,285.611 886.883,285.9083 889.1705,291.0787 C891.9138,286.2142 896.0369,285.0799 899.3591,290.5054 C904.073,286.5862 908.8768,287.3486 911,293.5 C911.5037,292.877 912.012,292.8012 912.4472,293.5711 C918.1146,295.5636 919.4286,299.0408 915.2856,303.7649 C920.6772,305.4981 921.7228,310.1539 917.0833,313.7018 C920.2515,317.4757 919.2925,320.8845 914.6864,322.553 C917.3924,329.58 915.6906,334.0276 907.5,334.5 C908.1843,334.7379 908.286,335.2307 907.6981,335.6818 C905.3371,340.0561 902.5489,339.5885 899.4212,336.5362 C896.093,341.8055 892.4449,340.8208 889.4403,336.2093 C886.9706,341.6331 882.6926,343.0135 878.2135,338.4735 C875.5087,343.3982 872.3221,343.3672 869.3534,338.7177 C867.1492,344.0993 862.1835,344.9467 858.7262,340.008 C856.9416,344.5459 852.9423,345.0285 850.0664,341.1279 C847.8059,346.1201 843.5405,346.5435 840.2555,342.2052 C837.3494,345.8314 832.7762,346.6979 830.778,341.2563 C827.4882,346.6534 822.4301,346.5483 819.9694,340.475 C815.6759,344.8077 812.4899,343.8731 810.6594,338.1864 C808.5476,342.8391 804.0849,343.2153 801.4267,338.7389 C797.5142,342.0903 793.5843,341.3326 791.8291,336.2763 C789.4504,341.5426 785.1328,341.7011 782.0762,336.9354 C774.2199,342.823 769.2369,339.3859 767,331 C767.4073,330.5833 767.754,330.6456 767.9469,331.2075 C758.6621,326.3641 758.6549,318.3554 767.808,313.3685 C755.7859,305.0865 758.6339,295.5301 770.5,290 C770.7388,289.7475 770.9104,289.8617 771.0354,290.1194 " fill="#FFFFFF" style="stroke:#000000;stroke-width:0.5;"/><text fill="#000000" font-family="Verdana" font-size="7" font-weight="bold" lengthAdjust="spacing" textLength="38.5479" x="819.7261" y="299.5376">NASA API</text></g><!--cluster teaching--><g id="cluster_teaching"><rect fill="#FFFFFF" height="44.5" rx="1.25" ry="1.25" style="stroke:#000000;stroke-width:0.5;" width="384" x="535.5" y="213"/><text fill="#000000" font-family="Verdana" font-size="7" font-weight="bold" lengthAdjust="spacing" textLength="104.6445" x="675.1777" y="221.0376">Teacher &amp; Course Services</text></g><!--cluster db--><g id="cluster_db"><path d="M465,287.5 C465,282.5 569.75,282.5 569.75,282.5 C569.75,282.5 674.5,282.5 674.5,287.5 L674.5,329.5 C674.5,334.5 569.75,334.5 569.75,334.5 C569.75,334.5 465,334.5 465,329.5 L465,287.5 " fill="#FFFFFF" style="stroke:#000000;stroke-width:0.5;"/><path d="M465,287.5 C465,292.5 569.75,292.5 569.75,292.5 C569.75,292.5 674.5,292.5 674.5,287.5 " fill="none" style="stroke:#000000;stroke-width:0.5;"/><text fill="#000000" font-family="Verdana" font-size="7" font-weight="bold" lengthAdjust="spacing" textLength="45.6846" x="546.9077" y="300.5376">PostgreSQL</text></g><!--entity frontend--><g id="elem_frontend"><rect fill="#FFFFFF" height="18.5073" rx="1.25" ry="1.25" style="stroke:#000000;stroke-width:0.5;" width="63.5151" x="609.75" y="24"/><text fill="#000000" font-family="Verdana" font-size="7" lengthAdjust="spacing" textLength="53.5151" x="614.75" y="36.0376">React Frontend</text></g><!--entity scg--><g id="elem_scg"><rect fill="#FFFFFF" height="18.5073" rx="1.25" ry="1.25" style="stroke:#000000;stroke-width:0.5;" width="88.251" x="597.25" y="93"/><text fill="#000000" font-family="Verdana" font-size="7" lengthAdjust="spacing" textLength="78.251" x="602.25" y="105.0376">Spring Cloud Gateway</text></g><!--entity security--><g id="elem_security"><rect fill="#FFFFFF" height="18.5073" rx="1.25" ry="1.25" style="stroke:#000000;stroke-width:0.5;" width="64.1475" x="179" y="162"/><text fill="#000000" font-family="Verdana" font-size="7" lengthAdjust="spacing" textLength="54.1475" x="184" y="174.0376">Spring Security</text></g><!--entity jwt--><g id="elem_jwt"><rect fill="#FFFFFF" height="18.5073" rx="1.25" ry="1.25" style="stroke:#000000;stroke-width:0.5;" width="55.917" x="105.5" y="162"/><text fill="#000000" font-family="Verdana" font-size="7" lengthAdjust="spacing" textLength="45.917" x="110.5" y="174.0376">JWT Provider</text></g><!--entity oauth--><g id="elem_oauth"><rect fill="#FFFFFF" height="18.5073" rx="1.25" ry="1.25" style="stroke:#000000;stroke-width:0.5;" width="73.5879" x="14.25" y="162"/><text fill="#000000" font-family="Verdana" font-size="7" lengthAdjust="spacing" textLength="63.5879" x="19.25" y="174.0376">OAuth Integration</text></g><!--entity parent--><g id="elem_parent"><rect fill="#FFFFFF" height="18.5073" rx="1.25" ry="1.25" style="stroke:#000000;stroke-width:0.5;" width="80.6665" x="601.25" y="162"/><text fill="#000000" font-family="Verdana" font-size="7" lengthAdjust="spacing" textLength="70.6665" x="606.25" y="174.0376">Parent Management</text></g><!--entity kid--><g id="elem_kid"><rect fill="#FFFFFF" height="18.5073" rx="1.25" ry="1.25" style="stroke:#000000;stroke-width:0.5;" width="93.4189" x="490.25" y="162"/><text fill="#000000" font-family="Verdana" font-size="7" lengthAdjust="spacing" textLength="83.4189" x="495.25" y="174.0376">Kid Profile Management</text></g><!--entity enrollment--><g id="elem_enrollment"><rect fill="#FFFFFF" height="18.5073" rx="1.25" ry="1.25" style="stroke:#000000;stroke-width:0.5;" width="76.8726" x="395.5" y="162"/><text fill="#000000" font-family="Verdana" font-size="7" lengthAdjust="spacing" textLength="66.8726" x="400.5" y="174.0376">Enrollment System</text></g><!--entity xp--><g id="elem_xp"><rect fill="#FFFFFF" height="18.5073" rx="1.25" ry="1.25" style="stroke:#000000;stroke-width:0.5;" width="106.9233" x="271" y="162"/><text fill="#000000" font-family="Verdana" font-size="7" lengthAdjust="spacing" textLength="96.9233" x="276" y="174.0376">XP &amp; Achievement Tracking</text></g><!--entity apod--><g id="elem_apod"><rect fill="#FFFFFF" height="18.5073" rx="1.25" ry="1.25" style="stroke:#000000;stroke-width:0.5;" width="29.9097" x="873" y="308"/><text fill="#000000" font-family="Verdana" font-size="7" lengthAdjust="spacing" textLength="19.9097" x="878" y="320.0376">APOD</text></g><!--entity other--><g id="elem_other"><rect fill="#FFFFFF" height="18.5073" rx="1.25" ry="1.25" style="stroke:#000000;stroke-width:0.5;" width="70.9287" x="784.5" y="308"/><text fill="#000000" font-family="Verdana" font-size="7" lengthAdjust="spacing" textLength="60.9287" x="789.5" y="320.0376">Other NASA Data</text></g><!--entity teacher--><g id="elem_teacher"><rect fill="#FFFFFF" height="18.5073" rx="1.25" ry="1.25" style="stroke:#000000;stroke-width:0.5;" width="85.8174" x="825.5" y="231"/><text fill="#000000" font-family="Verdana" font-size="7" lengthAdjust="spacing" textLength="75.8174" x="830.5" y="243.0376">Teacher Management</text></g><!--entity course--><g id="elem_course"><rect fill="#FFFFFF" height="18.5073" rx="1.25" ry="1.25" style="stroke:#000000;stroke-width:0.5;" width="82.2661" x="725.25" y="231"/><text fill="#000000" font-family="Verdana" font-size="7" lengthAdjust="spacing" textLength="72.2661" x="730.25" y="243.0376">Course Management</text></g><!--entity content--><g id="elem_content"><rect fill="#FFFFFF" height="18.5073" rx="1.25" ry="1.25" style="stroke:#000000;stroke-width:0.5;" width="84.7954" x="543.5" y="231"/><text fill="#000000" font-family="Verdana" font-size="7" lengthAdjust="spacing" textLength="74.7954" x="548.5" y="243.0376">Content Organization</text></g><!--entity rating--><g id="elem_rating"><rect fill="#FFFFFF" height="18.5073" rx="1.25" ry="1.25" style="stroke:#000000;stroke-width:0.5;" width="61.314" x="646.25" y="231"/><text fill="#000000" font-family="Verdana" font-size="7" lengthAdjust="spacing" textLength="51.314" x="651.25" y="243.0376">Rating System</text></g><!--entity userDb--><g id="elem_userDb"><rect fill="#FFFFFF" height="18.5073" rx="1.25" ry="1.25" style="stroke:#000000;stroke-width:0.5;" width="44.9487" x="621.5" y="308"/><text fill="#000000" font-family="Verdana" font-size="7" lengthAdjust="spacing" textLength="34.9487" x="626.5" y="320.0376">User Data</text></g><!--entity courseDb--><g id="elem_courseDb"><rect fill="#FFFFFF" height="18.5073" rx="1.25" ry="1.25" style="stroke:#000000;stroke-width:0.5;" width="53.3911" x="550.25" y="308"/><text fill="#000000" font-family="Verdana" font-size="7" lengthAdjust="spacing" textLength="43.3911" x="555.25" y="320.0376">Course Data</text></g><!--entity progressDb--><g id="elem_progressDb"><rect fill="#FFFFFF" height="18.5073" rx="1.25" ry="1.25" style="stroke:#000000;stroke-width:0.5;" width="59.2905" x="473.25" y="308"/><text fill="#000000" font-family="Verdana" font-size="7" lengthAdjust="spacing" textLength="49.2905" x="478.25" y="320.0376">Progress Data</text></g><!--link frontend to scg--><g id="link_frontend_scg"><path d="M641.5,42.5 C641.5,55.485 641.5,76.725 641.5,89.815 " fill="none" id="frontend-to-scg" style="stroke:#000000;stroke-width:0.5;"/><polygon fill="#000000" points="641.5,92.815,643.5,88.315,641.5,90.315,639.5,88.315,641.5,92.815" style="stroke:#000000;stroke-width:0.5;"/><text fill="#000000" font-family="Verdana" font-size="6.5" lengthAdjust="spacing" textLength="41.0249" x="642" y="65.5349">HTTP/HTTPS</text></g><!--link scg to security--><g id="link_scg_security"><path d="M597.195,104.705 C511.05,108.895 324.07,120.03 263,140 C247.945,144.925 234.9992,152.9884 224.9092,160.2134 " fill="none" id="scg-to-security" style="stroke:#000000;stroke-width:0.5;"/><polygon fill="#000000" points="222.47,161.96,227.2931,160.9662,224.5026,160.5045,224.9644,157.714,222.47,161.96" style="stroke:#000000;stroke-width:0.5;"/><text fill="#000000" font-family="Verdana" font-size="6.5" lengthAdjust="spacing" textLength="41.2852" x="316.5" y="134.5349">Authenticate</text></g><!--link scg to parent--><g id="link_scg_parent"><path d="M641.5,111.5 C641.5,124.485 641.5,145.725 641.5,158.815 " fill="none" id="scg-to-parent" style="stroke:#000000;stroke-width:0.5;"/><polygon fill="#000000" points="641.5,161.815,643.5,157.315,641.5,159.315,639.5,157.315,641.5,161.815" style="stroke:#000000;stroke-width:0.5;"/><text fill="#000000" font-family="Verdana" font-size="6.5" lengthAdjust="spacing" textLength="53.1902" x="642" y="134.5349">Parent Requests</text></g><!--link scg to kid--><g id="link_scg_kid"><path d="M623.04,111.61 C614.215,116.06 603.615,121.725 594.5,127.5 C577.405,138.33 561.2495,150.8847 549.9795,160.0297 " fill="none" id="scg-to-kid" style="stroke:#000000;stroke-width:0.5;"/><polygon fill="#000000" points="547.65,161.92,552.4045,160.6376,549.5913,160.3448,549.8841,157.5315,547.65,161.92" style="stroke:#000000;stroke-width:0.5;"/><text fill="#000000" font-family="Verdana" font-size="6.5" lengthAdjust="spacing" textLength="42.3833" x="595" y="134.5349">Kid Requests</text></g><!--link scg to teacher--><g id="link_scg_teacher"><path d="M685.775,103.74 C721.08,106.53 770.275,115.095 805.5,140 C838.95,163.65 857.5811,208.4029 864.5711,228.0879 " fill="none" id="scg-to-teacher" style="stroke:#000000;stroke-width:0.5;"/><polygon fill="#000000" points="865.575,230.915,865.9539,226.0052,864.7384,228.5591,862.1845,227.3437,865.575,230.915" style="stroke:#000000;stroke-width:0.5;"/><text fill="#000000" font-family="Verdana" font-size="6.5" lengthAdjust="spacing" textLength="57.9731" x="848" y="174.0349">Teacher Requests</text></g><!--link scg to course--><g id="link_scg_course"><path d="M671.725,111.505 C681.345,115.32 691.545,120.55 699.5,127.5 C734.025,157.66 754.7444,207.2994 762.3894,228.0844 " fill="none" id="scg-to-course" style="stroke:#000000;stroke-width:0.5;"/><polygon fill="#000000" points="763.425,230.9,763.7486,225.9862,762.562,228.5537,759.9945,227.367,763.425,230.9" style="stroke:#000000;stroke-width:0.5;"/><text fill="#000000" font-family="Verdana" font-size="6.5" lengthAdjust="spacing" textLength="54.6755" x="746.5" y="174.0349">Course Requests</text></g><!--link teacher to userDb--><g id="link_teacher_userDb"><path d="M860.955,249.64 C853.59,257.615 841.605,268.835 828.5,274 C814.11,279.675 774.19,275.06 759,278 C724.975,284.59 689.9724,297.5759 667.3074,306.8309 " fill="none" id="teacher-to-userDb" style="stroke:#000000;stroke-width:0.5;"/><polygon fill="#000000" points="664.53,307.965,669.4521,308.1154,666.8445,307.0199,667.94,304.4123,664.53,307.965" style="stroke:#000000;stroke-width:0.5;"/><text fill="#000000" font-family="Verdana" font-size="6.5" lengthAdjust="spacing" textLength="47.6487" x="843.5" y="272.5349">Store/Retrieve</text></g><!--link course to courseDb--><g id="link_course_courseDb"><path d="M746.195,249.565 C737.165,253.385 726.36,257.815 716.5,261.5 C700.045,267.65 696.25,270.66 679,274 C664.575,276.79 626.285,271.725 613,278 C599.3,284.47 589.9482,296.19 583.8632,305.485 " fill="none" id="course-to-courseDb" style="stroke:#000000;stroke-width:0.5;"/><polygon fill="#000000" points="582.22,307.995,586.3581,305.3255,583.5893,305.9033,583.0114,303.1346,582.22,307.995" style="stroke:#000000;stroke-width:0.5;"/><text fill="#000000" font-family="Verdana" font-size="6.5" lengthAdjust="spacing" textLength="47.6487" x="706" y="272.5349">Store/Retrieve</text></g><!--link course to nasa--><g id="link_course_nasa"><path d="M766.56,249.615 C766.5925,254.5488 766.6356,261.12 766.6822,268.224 C766.7055,271.776 766.7296,275.4612 766.7537,279.1414 C766.7658,280.9815 766.7778,282.8205 766.7897,284.6409 C766.7912,284.8684 766.7927,285.0957 766.7942,285.3226 C766.7949,285.4361 766.776,282.5495 766.7768,282.6628 " fill="none" id="course-to-nasa" style="stroke:#000000;stroke-width:0.5;"/><polygon fill="#000000" points="766.7964,285.6628,768.7669,281.1498,766.78,283.1628,764.767,281.176,766.7964,285.6628" style="stroke:#000000;stroke-width:0.5;"/><text fill="#000000" font-family="Verdana" font-size="6.5" lengthAdjust="spacing" textLength="57.2717" x="767" y="272.5349">Fetch Space Data</text></g><!--link content to courseDb--><g id="link_content_courseDb"><path d="M581.205,249.635 C578.995,254.23 576.615,260.01 575.5,265.5 C572.52,280.155 573.6794,294.6739 575.1194,304.9689 " fill="none" id="content-to-courseDb" style="stroke:#000000;stroke-width:0.5;"/><polygon fill="#000000" points="575.535,307.94,576.8924,303.2063,575.1887,305.4641,572.9309,303.7604,575.535,307.94" style="stroke:#000000;stroke-width:0.5;"/><text fill="#000000" font-family="Verdana" font-size="6.5" lengthAdjust="spacing" textLength="29.0278" x="576" y="272.5349">Organize</text></g><!--link rating to courseDb--><g id="link_rating_courseDb"><path d="M661.71,249.525 C654.5,253.465 645.695,258.01 637.5,261.5 C632.33,263.705 630.28,262.545 625.5,265.5 C607.265,276.77 593.057,294.152 584.777,305.562 " fill="none" id="rating-to-courseDb" style="stroke:#000000;stroke-width:0.5;"/><polygon fill="#000000" points="583.015,307.99,587.2767,305.5226,584.4833,305.9666,584.0393,303.1733,583.015,307.99" style="stroke:#000000;stroke-width:0.5;"/><text fill="#000000" font-family="Verdana" font-size="6.5" lengthAdjust="spacing" textLength="50.5972" x="626" y="272.5349">Store Feedback</text></g><!--link parent to rating--><g id="link_parent_rating"><path d="M646.07,180.5 C652.845,193.485 664.1172,215.0653 670.9472,228.1553 " fill="none" id="parent-to-rating" style="stroke:#000000;stroke-width:0.5;"/><polygon fill="#000000" points="672.335,230.815,672.0265,225.9002,671.1785,228.5986,668.4802,227.7506,672.335,230.815" style="stroke:#000000;stroke-width:0.5;"/><text fill="#000000" font-family="Verdana" font-size="6.5" lengthAdjust="spacing" textLength="49.8767" x="658.5" y="203.5349">Submit Ratings</text></g><!--link kid to courseDb--><g id="link_kid_courseDb"><path d="M516.535,180.535 C505.005,186.68 491.625,196.11 485,209 C474.335,229.755 471.005,242.83 485,261.5 C500.69,282.43 519.29,264.18 541.5,278 C553.97,285.76 563.0483,296.6459 569.3683,305.4709 " fill="none" id="kid-to-courseDb" style="stroke:#000000;stroke-width:0.5;"/><polygon fill="#000000" points="571.115,307.91,570.121,303.0869,569.6594,305.8775,566.8689,305.4159,571.115,307.91" style="stroke:#000000;stroke-width:0.5;"/><text fill="#000000" font-family="Verdana" font-size="6.5" lengthAdjust="spacing" textLength="49.8513" x="485.5" y="243.0349">Access Content</text></g><!--link enrollment to courseDb--><g id="link_enrollment_courseDb"><path d="M424.095,180.605 C417.13,187.54 408.375,197.86 404.5,209 C396.83,231.035 389.33,243.775 404.5,261.5 C427.9,288.84 448.74,269.96 484.5,274 C497.12,275.425 530.065,272.48 541.5,278 C554.975,284.505 564.1252,296.0563 570.1302,305.3363 " fill="none" id="enrollment-to-courseDb" style="stroke:#000000;stroke-width:0.5;"/><polygon fill="#000000" points="571.76,307.855,570.9944,302.9904,570.4018,305.7561,567.6362,305.1635,571.76,307.855" style="stroke:#000000;stroke-width:0.5;"/><text fill="#000000" font-family="Verdana" font-size="6.5" lengthAdjust="spacing" textLength="66.3711" x="405" y="243.0349">Manage Enrollments</text></g><!--link xp to progressDb--><g id="link_xp_progressDb"><path d="M323.615,180.5 C322.335,198.105 322.045,238.115 342.5,261.5 C375.82,299.6 433.6901,311.1444 470.1351,314.8144 " fill="none" id="xp-to-progressDb" style="stroke:#000000;stroke-width:0.5;"/><polygon fill="#000000" points="473.12,315.115,468.843,312.6742,470.6326,314.8645,468.4423,316.6541,473.12,315.115" style="stroke:#000000;stroke-width:0.5;"/><text fill="#000000" font-family="Verdana" font-size="6.5" lengthAdjust="spacing" textLength="48.3088" x="343" y="243.0349">Track Progress</text></g><!--SRC=[XLFBRjim4BppAxO-v1RaxaC1mMxQz6NNSj42GGuqjP7Po1HBKaxSel_UNPAIOgL0BuAuCnmETuUlmXuF2BQHsWZ_e8sLJXv0jGVR6ZIX3AS6mQ4AqjGD2Z7ymcpHQ690OMsZbGowDJEG7bGg_nO0jnkKAi2rQqr0KzqnV9yNui-PMB6-WRSouACyHPKw_IUPqZfjQbWqRLVrh2ZcLJtLwUX69cH3KA8xQeLHKX9qfbUYwfmEMIel67__RGjhrnvrXIw2Fnu3rrUi3ZValtPHFu8j2qzihAKZ5nuku8Ek_9aD6w47NIKlYGcVf94rZSA4kv74EErdB_UQP2Saqc366-FQfk4gb2SVy1117AhC-RucAuNQQpp6_R1rKj6uwyXzicnVnVREFXTb0JIEQDP8BvFFOhrQHhAqRJnsHOrs4DbB6MHg1TSchTXI1fXv0OksSnxxPlXuG62KXn4FwRcJYuPKPaRMc11Kh2QSqnLWvMffzAznIYe1CPLKvV6FpNAnmiOhkifEUXvXwqFjiFpoCHgjTidYLq_-XWjtj5hkdXaRa6GfOJG_Kl9-H6sk44w7zcy2BYzVSwPX3k-ss_KLVqh1XGZaX1BwBEKuu2apXEP8RV1dXpxuWS2PctCWNqAvmmJt8tX1IHSYHhxfGEZtCYdrWqXbQ1rURJ0uZfp8cqUT_v1YxkPmZK7jeRHIfSwAFCMfK9usYZJ8Vvv3ObZjAFKYDuf9cK-KRdVGrBEuze9RDH4fbE8Hve29yNrDYIcRC3vBBvvicj0mTMuqlq3ee_4N]--></g></svg>