<?xml version="1.0" encoding="us-ascii" standalone="no"?><svg xmlns="http://www.w3.org/2000/svg" xmlns:xlink="http://www.w3.org/1999/xlink" contentStyleType="text/css" height="609px" preserveAspectRatio="none" style="width:885px;height:609px;background:#FFFFFF;" version="1.1" viewBox="0 0 885 609" width="885px" zoomAndPan="magnify"><defs/><g><!--cluster parent-kid-service--><g id="cluster_parent-kid-service"><path d="M8.5,6 L139.5,6 A3.75,3.75 0 0 1 142,8.5 L149,29.6094 L875.5,29.6094 A2.5,2.5 0 0 1 878,32.1094 L878,485.5 A2.5,2.5 0 0 1 875.5,488 L8.5,488 A2.5,2.5 0 0 1 6,485.5 L6,8.5 A2.5,2.5 0 0 1 8.5,6 " fill="none" style="stroke:#000000;stroke-width:1.5;"/><line style="stroke:#000000;stroke-width:1.5;" x1="6" x2="149" y1="29.6094" y2="29.6094"/><text fill="#000000" font-family="sans-serif" font-size="14" font-weight="bold" lengthAdjust="spacing" textLength="130" x="10" y="22.5332">parent-kid-service</text></g><!--cluster Database Tables--><g id="cluster_Database Tables"><path d="M88.5,512 L204.5,512 A3.75,3.75 0 0 1 207,514.5 L214,535.6094 L844.5,535.6094 A2.5,2.5 0 0 1 847,538.1094 L847,599.5 A2.5,2.5 0 0 1 844.5,602 L88.5,602 A2.5,2.5 0 0 1 86,599.5 L86,514.5 A2.5,2.5 0 0 1 88.5,512 " fill="none" style="stroke:#000000;stroke-width:1.5;"/><line style="stroke:#000000;stroke-width:1.5;" x1="86" x2="214" y1="535.6094" y2="535.6094"/><text fill="#000000" font-family="sans-serif" font-size="14" font-weight="bold" lengthAdjust="spacing" textLength="115" x="90" y="528.5332">Database Tables</text></g><!--entity Client (Web/Mobile)--><g id="elem_Client (Web/Mobile)"><rect fill="#F1F1F1" height="37.6094" rx="2.5" ry="2.5" style="stroke:#181818;stroke-width:0.5;" width="144" x="256" y="42"/><text fill="#000000" font-family="sans-serif" font-size="14" lengthAdjust="spacing" textLength="124" x="266" y="66.5332">Client (Web/Mobile)</text></g><!--entity KidController--><g id="elem_KidController"><rect fill="#F1F1F1" height="37.6094" rx="2.5" ry="2.5" style="stroke:#181818;stroke-width:0.5;" width="102" x="50" y="140"/><text fill="#000000" font-family="sans-serif" font-size="14" lengthAdjust="spacing" textLength="82" x="60" y="164.5332">KidController</text></g><!--entity ParentController--><g id="elem_ParentController"><rect fill="#F1F1F1" height="37.6094" rx="2.5" ry="2.5" style="stroke:#181818;stroke-width:0.5;" width="124" x="187" y="140"/><text fill="#000000" font-family="sans-serif" font-size="14" lengthAdjust="spacing" textLength="104" x="197" y="164.5332">ParentController</text></g><!--entity RatingController--><g id="elem_RatingController"><rect fill="#F1F1F1" height="37.6094" rx="2.5" ry="2.5" style="stroke:#181818;stroke-width:0.5;" width="123" x="346.5" y="140"/><text fill="#000000" font-family="sans-serif" font-size="14" lengthAdjust="spacing" textLength="103" x="356.5" y="164.5332">RatingController</text></g><!--entity ReportController--><g id="elem_ReportController"><rect fill="#F1F1F1" height="37.6094" rx="2.5" ry="2.5" style="stroke:#181818;stroke-width:0.5;" width="125" x="504.5" y="140"/><text fill="#000000" font-family="sans-serif" font-size="14" lengthAdjust="spacing" textLength="105" x="514.5" y="164.5332">ReportController</text></g><!--entity KidService--><g id="elem_KidService"><rect fill="#F1F1F1" height="37.6094" rx="2.5" ry="2.5" style="stroke:#181818;stroke-width:0.5;" width="87" x="57.5" y="238"/><text fill="#000000" font-family="sans-serif" font-size="14" lengthAdjust="spacing" textLength="67" x="67.5" y="262.5332">KidService</text></g><!--entity ParentService--><g id="elem_ParentService"><rect fill="#F1F1F1" height="37.6094" rx="2.5" ry="2.5" style="stroke:#181818;stroke-width:0.5;" width="109" x="188.5" y="238"/><text fill="#000000" font-family="sans-serif" font-size="14" lengthAdjust="spacing" textLength="89" x="198.5" y="262.5332">ParentService</text></g><!--entity RatingService--><g id="elem_RatingService"><rect fill="#F1F1F1" height="37.6094" rx="2.5" ry="2.5" style="stroke:#181818;stroke-width:0.5;" width="108" x="354" y="238"/><text fill="#000000" font-family="sans-serif" font-size="14" lengthAdjust="spacing" textLength="88" x="364" y="262.5332">RatingService</text></g><!--entity ReportService--><g id="elem_ReportService"><rect fill="#F1F1F1" height="37.6094" rx="2.5" ry="2.5" style="stroke:#181818;stroke-width:0.5;" width="110" x="512" y="238"/><text fill="#000000" font-family="sans-serif" font-size="14" lengthAdjust="spacing" textLength="90" x="522" y="262.5332">ReportService</text></g><!--entity UserRepository--><g id="elem_UserRepository"><rect fill="#F1F1F1" height="37.6094" rx="2.5" ry="2.5" style="stroke:#181818;stroke-width:0.5;" width="117" x="178.5" y="336"/><text fill="#000000" font-family="sans-serif" font-size="14" lengthAdjust="spacing" textLength="97" x="188.5" y="360.5332">UserRepository</text></g><!--entity KidRepository--><g id="elem_KidRepository"><rect fill="#F1F1F1" height="37.6094" rx="2.5" ry="2.5" style="stroke:#181818;stroke-width:0.5;" width="108" x="22" y="434"/><text fill="#000000" font-family="sans-serif" font-size="14" lengthAdjust="spacing" textLength="88" x="32" y="458.5332">KidRepository</text></g><!--entity EnrollmentRepository--><g id="elem_EnrollmentRepository"><rect fill="#F1F1F1" height="37.6094" rx="2.5" ry="2.5" style="stroke:#181818;stroke-width:0.5;" width="155" x="330.5" y="336"/><text fill="#000000" font-family="sans-serif" font-size="14" lengthAdjust="spacing" textLength="135" x="340.5" y="360.5332">EnrollmentRepository</text></g><!--entity RatingRepository--><g id="elem_RatingRepository"><rect fill="#F1F1F1" height="37.6094" rx="2.5" ry="2.5" style="stroke:#181818;stroke-width:0.5;" width="129" x="520.5" y="336"/><text fill="#000000" font-family="sans-serif" font-size="14" lengthAdjust="spacing" textLength="109" x="530.5" y="360.5332">RatingRepository</text></g><!--entity CourseReportRepository--><g id="elem_CourseReportRepository"><rect fill="#F1F1F1" height="37.6094" rx="2.5" ry="2.5" style="stroke:#181818;stroke-width:0.5;" width="177" x="684.5" y="336"/><text fill="#000000" font-family="sans-serif" font-size="14" lengthAdjust="spacing" textLength="157" x="694.5" y="360.5332">CourseReportRepository</text></g><!--entity XPService--><g id="elem_XPService"><rect fill="#F1F1F1" height="37.6094" rx="2.5" ry="2.5" style="stroke:#181818;stroke-width:0.5;" width="84" x="59" y="336"/><text fill="#000000" font-family="sans-serif" font-size="14" lengthAdjust="spacing" textLength="64" x="69" y="360.5332">XPService</text></g><!--entity XPTitleConfig--><g id="elem_XPTitleConfig"><rect fill="#F1F1F1" height="37.6094" rx="2.5" ry="2.5" style="stroke:#181818;stroke-width:0.5;" width="105" x="165.5" y="434"/><text fill="#000000" font-family="sans-serif" font-size="14" lengthAdjust="spacing" textLength="85" x="175.5" y="458.5332">XPTitleConfig</text></g><!--entity users--><g id="elem_users"><rect fill="#F1F1F1" height="37.6094" rx="2.5" ry="2.5" style="stroke:#181818;stroke-width:0.5;" width="55" x="182.5" y="548"/><text fill="#000000" font-family="sans-serif" font-size="14" lengthAdjust="spacing" textLength="35" x="192.5" y="572.5332">users</text></g><!--entity kids--><g id="elem_kids"><rect fill="#F1F1F1" height="37.6094" rx="2.5" ry="2.5" style="stroke:#181818;stroke-width:0.5;" width="45" x="102.5" y="548"/><text fill="#000000" font-family="sans-serif" font-size="14" lengthAdjust="spacing" textLength="25" x="112.5" y="572.5332">kids</text></g><!--entity teachers--><g id="elem_teachers"><rect fill="#F1F1F1" height="37.6094" rx="2.5" ry="2.5" style="stroke:#181818;stroke-width:0.5;" width="75" x="506.5" y="548"/><text fill="#000000" font-family="sans-serif" font-size="14" lengthAdjust="spacing" textLength="55" x="516.5" y="572.5332">teachers</text></g><!--entity courses--><g id="elem_courses"><rect fill="#F1F1F1" height="37.6094" rx="2.5" ry="2.5" style="stroke:#181818;stroke-width:0.5;" width="70" x="401" y="548"/><text fill="#000000" font-family="sans-serif" font-size="14" lengthAdjust="spacing" textLength="50" x="411" y="572.5332">courses</text></g><!--entity enrollments--><g id="elem_enrollments"><rect fill="#F1F1F1" height="37.6094" rx="2.5" ry="2.5" style="stroke:#181818;stroke-width:0.5;" width="93" x="272.5" y="548"/><text fill="#000000" font-family="sans-serif" font-size="14" lengthAdjust="spacing" textLength="73" x="282.5" y="572.5332">enrollments</text></g><!--entity ratings--><g id="elem_ratings"><rect fill="#F1F1F1" height="37.6094" rx="2.5" ry="2.5" style="stroke:#181818;stroke-width:0.5;" width="63" x="616.5" y="548"/><text fill="#000000" font-family="sans-serif" font-size="14" lengthAdjust="spacing" textLength="43" x="626.5" y="572.5332">ratings</text></g><!--entity course_reports--><g id="elem_course_reports"><rect fill="#F1F1F1" height="37.6094" rx="2.5" ry="2.5" style="stroke:#181818;stroke-width:0.5;" width="116" x="715" y="548"/><text fill="#000000" font-family="sans-serif" font-size="14" lengthAdjust="spacing" textLength="96" x="725" y="572.5332">course_reports</text></g><!--link Client (Web/Mobile) to KidController--><g id="link_Client (Web/Mobile)_KidController"><path d="M285.3,80.06 C244.85,97.17 189.9364,120.3937 149.4164,137.5237 " fill="none" id="Client (Web/Mobile)-to-KidController" style="stroke:#181818;stroke-width:1.0;"/><polygon fill="#181818" points="143.89,139.86,153.7372,140.0398,148.4954,137.9131,150.6221,132.6712,143.89,139.86" style="stroke:#181818;stroke-width:1.0;"/></g><!--link Client (Web/Mobile) to ParentController--><g id="link_Client (Web/Mobile)_ParentController"><path d="M313.14,80.06 C299.11,97.11 281.9718,117.9264 267.8718,135.0664 " fill="none" id="Client (Web/Mobile)-to-ParentController" style="stroke:#181818;stroke-width:1.0;"/><polygon fill="#181818" points="264.06,139.7,272.8667,135.2908,267.2365,135.8387,266.6886,130.2084,264.06,139.7" style="stroke:#181818;stroke-width:1.0;"/></g><!--link Client (Web/Mobile) to RatingController--><g id="link_Client (Web/Mobile)_RatingController"><path d="M343.05,80.06 C357.26,97.11 374.6294,117.9502 388.9094,135.0902 " fill="none" id="Client (Web/Mobile)-to-RatingController" style="stroke:#181818;stroke-width:1.0;"/><polygon fill="#181818" points="392.75,139.7,390.0623,130.225,389.5495,135.8585,383.916,135.3457,392.75,139.7" style="stroke:#181818;stroke-width:1.0;"/></g><!--link Client (Web/Mobile) to ReportController--><g id="link_Client (Web/Mobile)_ReportController"><path d="M372.95,80.06 C415.55,97.17 473.6121,120.4942 516.2721,137.6242 " fill="none" id="Client (Web/Mobile)-to-ReportController" style="stroke:#181818;stroke-width:1.0;"/><polygon fill="#181818" points="521.84,139.86,514.9787,132.7944,517.2001,137.9969,511.9977,140.2183,521.84,139.86" style="stroke:#181818;stroke-width:1.0;"/></g><!--link KidController to KidService--><g id="link_KidController_KidService"><path d="M101,178.06 C101,195.11 101,214.56 101,231.7 " fill="none" id="KidController-to-KidService" style="stroke:#181818;stroke-width:1.0;"/><polygon fill="#181818" points="101,237.7,105,228.7,101,232.7,97,228.7,101,237.7" style="stroke:#181818;stroke-width:1.0;"/></g><!--link ParentController to ParentService--><g id="link_ParentController_ParentService"><path d="M247.87,178.06 C246.81,195.11 245.5838,214.5717 244.5138,231.7117 " fill="none" id="ParentController-to-ParentService" style="stroke:#181818;stroke-width:1.0;"/><polygon fill="#181818" points="244.14,237.7,248.693,228.9667,244.4515,232.7097,240.7085,228.4683,244.14,237.7" style="stroke:#181818;stroke-width:1.0;"/></g><!--link RatingController to RatingService--><g id="link_RatingController_RatingService"><path d="M408,178.06 C408,195.11 408,214.56 408,231.7 " fill="none" id="RatingController-to-RatingService" style="stroke:#181818;stroke-width:1.0;"/><polygon fill="#181818" points="408,237.7,412,228.7,408,232.7,404,228.7,408,237.7" style="stroke:#181818;stroke-width:1.0;"/></g><!--link ReportController to ReportService--><g id="link_ReportController_ReportService"><path d="M567,178.06 C567,195.11 567,214.56 567,231.7 " fill="none" id="ReportController-to-ReportService" style="stroke:#181818;stroke-width:1.0;"/><polygon fill="#181818" points="567,237.7,571,228.7,567,232.7,563,228.7,567,237.7" style="stroke:#181818;stroke-width:1.0;"/></g><!--link KidService to UserRepository--><g id="link_KidService_UserRepository"><path d="M126.58,276.06 C150.74,293.11 181.899,315.0988 206.169,332.2388 " fill="none" id="KidService-to-UserRepository" style="stroke:#181818;stroke-width:1.0;"/><polygon fill="#181818" points="211.07,335.7,206.0259,327.2408,206.9858,332.8157,201.411,333.7755,211.07,335.7" style="stroke:#181818;stroke-width:1.0;"/></g><!--link KidService to KidRepository--><g id="link_KidService_KidRepository"><path d="M81.44,276.05 C67.17,290.64 48.98,312.55 41,336 C29.35,370.25 45.985,405.7427 60.235,428.6927 " fill="none" id="KidService-to-KidRepository" style="stroke:#181818;stroke-width:1.0;"/><polygon fill="#181818" points="63.4,433.79,62.0507,424.034,60.7625,429.5422,55.2543,428.254,63.4,433.79" style="stroke:#181818;stroke-width:1.0;"/></g><!--link KidService to EnrollmentRepository--><g id="link_KidService_EnrollmentRepository"><path d="M144.66,271.65 C198.63,288.53 284.9032,315.51 344.6332,334.18 " fill="none" id="KidService-to-EnrollmentRepository" style="stroke:#181818;stroke-width:1.0;"/><polygon fill="#181818" points="350.36,335.97,342.9632,329.4671,345.5877,334.4783,340.5765,337.1028,350.36,335.97" style="stroke:#181818;stroke-width:1.0;"/></g><!--link ParentService to UserRepository--><g id="link_ParentService_UserRepository"><path d="M241.87,276.06 C240.81,293.11 239.5838,312.5717 238.5138,329.7117 " fill="none" id="ParentService-to-UserRepository" style="stroke:#181818;stroke-width:1.0;"/><polygon fill="#181818" points="238.14,335.7,242.693,326.9667,238.4515,330.7097,234.7085,326.4683,238.14,335.7" style="stroke:#181818;stroke-width:1.0;"/></g><!--link RatingService to EnrollmentRepository--><g id="link_RatingService_EnrollmentRepository"><path d="M408,276.06 C408,293.11 408,312.56 408,329.7 " fill="none" id="RatingService-to-EnrollmentRepository" style="stroke:#181818;stroke-width:1.0;"/><polygon fill="#181818" points="408,335.7,412,326.7,408,330.7,404,326.7,408,335.7" style="stroke:#181818;stroke-width:1.0;"/></g><!--link RatingService to RatingRepository--><g id="link_RatingService_RatingRepository"><path d="M441.29,276.06 C472.84,293.17 514.6852,315.8706 546.2852,333.0006 " fill="none" id="RatingService-to-RatingRepository" style="stroke:#181818;stroke-width:1.0;"/><polygon fill="#181818" points="551.56,335.86,545.5541,328.0543,547.1643,333.4772,541.7415,335.0874,551.56,335.86" style="stroke:#181818;stroke-width:1.0;"/></g><!--link ReportService to EnrollmentRepository--><g id="link_ReportService_EnrollmentRepository"><path d="M537.09,276.06 C508.76,293.17 471.5568,315.6295 443.1768,332.7595 " fill="none" id="ReportService-to-EnrollmentRepository" style="stroke:#181818;stroke-width:1.0;"/><polygon fill="#181818" points="438.04,335.86,447.8122,334.6337,442.3207,333.2762,443.6782,327.7847,438.04,335.86" style="stroke:#181818;stroke-width:1.0;"/></g><!--link ReportService to CourseReportRepository--><g id="link_ReportService_CourseReportRepository"><path d="M605.75,276.06 C642.46,293.17 691.8712,316.1963 728.6412,333.3263 " fill="none" id="ReportService-to-CourseReportRepository" style="stroke:#181818;stroke-width:1.0;"/><polygon fill="#181818" points="734.08,335.86,727.611,328.4335,729.5477,333.7485,724.2327,335.6852,734.08,335.86" style="stroke:#181818;stroke-width:1.0;"/></g><!--link KidService to XPService--><g id="link_KidService_XPService"><path d="M101,276.06 C101,293.11 101,312.56 101,329.7 " fill="none" id="KidService-to-XPService" style="stroke:#181818;stroke-width:1.0;"/><polygon fill="#181818" points="101,335.7,105,326.7,101,330.7,97,326.7,101,335.7" style="stroke:#181818;stroke-width:1.0;"/></g><!--link XPService to KidRepository--><g id="link_XPService_KidRepository"><path d="M96.3,374.06 C91.86,391.11 86.7409,410.7534 82.2809,427.8934 " fill="none" id="XPService-to-KidRepository" style="stroke:#181818;stroke-width:1.0;"/><polygon fill="#181818" points="80.77,433.7,86.9075,425.9973,82.0291,428.8611,79.1653,423.9827,80.77,433.7" style="stroke:#181818;stroke-width:1.0;"/></g><!--link XPService to XPTitleConfig--><g id="link_XPService_XPTitleConfig"><path d="M123.01,374.06 C143.79,391.11 170.1724,412.7531 191.0524,429.8931 " fill="none" id="XPService-to-XPTitleConfig" style="stroke:#181818;stroke-width:1.0;"/><polygon fill="#181818" points="195.69,433.7,191.2715,424.8979,191.8253,430.5276,186.1956,431.0814,195.69,433.7" style="stroke:#181818;stroke-width:1.0;"/></g><!--link UserRepository to users--><g id="link_UserRepository_users"><path d="M253.82,374.12 C278.21,402.63 317.43,458.59 288,496 C278.67,507.86 267.54,495.6 255,504 C238.76,514.88 229.1947,528.438 221.5547,542.498 " fill="none" id="UserRepository-to-users" style="stroke:#181818;stroke-width:1.0;"/><polygon fill="#181818" points="218.69,547.77,226.5017,541.7719,221.0773,543.3767,219.4724,537.9523,218.69,547.77" style="stroke:#181818;stroke-width:1.0;"/></g><!--link KidRepository to kids--><g id="link_KidRepository_kids"><path d="M84.09,472.49 C93.22,493.37 105.5849,521.6231 114.6549,542.3531 " fill="none" id="KidRepository-to-kids" style="stroke:#181818;stroke-width:1.0;"/><polygon fill="#181818" points="117.06,547.85,117.117,538.0013,115.0558,543.2693,109.7878,541.208,117.06,547.85" style="stroke:#181818;stroke-width:1.0;"/></g><!--link EnrollmentRepository to enrollments--><g id="link_EnrollmentRepository_enrollments"><path d="M400.26,374.27 C383.38,414.08 345.8013,502.7557 329.0013,542.3957 " fill="none" id="EnrollmentRepository-to-enrollments" style="stroke:#181818;stroke-width:1.0;"/><polygon fill="#181818" points="326.66,547.92,333.8548,541.1944,328.6111,543.3164,326.489,538.0726,326.66,547.92" style="stroke:#181818;stroke-width:1.0;"/></g><!--link RatingRepository to ratings--><g id="link_RatingRepository_ratings"><path d="M590.48,374.27 C602.43,414.08 628.9548,502.5334 640.8548,542.1734 " fill="none" id="RatingRepository-to-ratings" style="stroke:#181818;stroke-width:1.0;"/><polygon fill="#181818" points="642.58,547.92,643.8234,538.1499,641.1424,543.1311,636.1612,540.4501,642.58,547.92" style="stroke:#181818;stroke-width:1.0;"/></g><!--link CourseReportRepository to course_reports--><g id="link_CourseReportRepository_course_reports"><path d="M773,374.27 C773,414.08 773,502.28 773,541.92 " fill="none" id="CourseReportRepository-to-course_reports" style="stroke:#181818;stroke-width:1.0;"/><polygon fill="#181818" points="773,547.92,777,538.92,773,542.92,769,538.92,773,547.92" style="stroke:#181818;stroke-width:1.0;"/></g><!--SRC=[bPFFIiGm4CRlVOgm9pqKty1BzIH2SLTSM8gasR66fab9ii8YlhlJfkqc_MFTdfgPNsQ-RuQOaikQQbeHfgfQIP1sQyy2Y0PcgIm4H55DMKaB81i4CH-N_1WRq5-SmOPyHn71xv08ZZboymRvtRFAkO3RZCJnFJayyMEYfDLA2D3P6fssFQwuy48jbyKr5w1MEkZWReGw1-rRvxGhEv7dgmxHYJ1VxmWTI_AL3kWWiuyuwXLtqP26MwNFsGA5WNNeKJRzAxJYixxplrlxnlzJUH5tiPdImKJMIy_WYJff0oupRJ0PoJuDLtKvByzrpEpJ7RS2SByVlC1EFzwRUg2MvjG0sT5SW6aUL5lZXACrNJrySFsl1Se-BndMckbFC4oYZ-XsZY7zhbll64GTunKwmLtpaJcNSsBcf-w8GCPqbGuQb2qjn65ZoRy0]--></g></svg>