<?xml version="1.0" encoding="us-ascii" standalone="no"?><svg xmlns="http://www.w3.org/2000/svg" xmlns:xlink="http://www.w3.org/1999/xlink" contentStyleType="text/css" height="807px" preserveAspectRatio="none" style="width:2328px;height:807px;background:#FFFFFF;" version="1.1" viewBox="0 0 2328 807" width="2328px" zoomAndPan="magnify"><defs/><g><!--cluster com.nova_pioneers.teaching--><g id="cluster_com.nova_pioneers.teaching"><path d="M8.5,167 L213.5,167 A3.75,3.75 0 0 1 216,169.5 L223,190.6094 L1595.5,190.6094 A2.5,2.5 0 0 1 1598,193.1094 L1598,797.5 A2.5,2.5 0 0 1 1595.5,800 L8.5,800 A2.5,2.5 0 0 1 6,797.5 L6,169.5 A2.5,2.5 0 0 1 8.5,167 " fill="none" style="stroke:#000000;stroke-width:1.5;"/><line style="stroke:#000000;stroke-width:1.5;" x1="6" x2="223" y1="190.6094" y2="190.6094"/><text fill="#000000" font-family="sans-serif" font-size="14" font-weight="bold" lengthAdjust="spacing" textLength="204" x="10" y="183.5332">com.nova_pioneers.teaching</text></g><!--cluster DTOs--><g id="cluster_DTOs"><path d="M97.5,564 L135.5,564 A3.75,3.75 0 0 1 138,566.5 L145,587.6094 L386.5,587.6094 A2.5,2.5 0 0 1 389,590.1094 L389,765.5 A2.5,2.5 0 0 1 386.5,768 L97.5,768 A2.5,2.5 0 0 1 95,765.5 L95,566.5 A2.5,2.5 0 0 1 97.5,564 " fill="none" style="stroke:#000000;stroke-width:1.5;"/><line style="stroke:#000000;stroke-width:1.5;" x1="95" x2="145" y1="587.6094" y2="587.6094"/><text fill="#000000" font-family="sans-serif" font-size="14" font-weight="bold" lengthAdjust="spacing" textLength="37" x="99" y="580.5332">DTOs</text></g><!--cluster Database Tables--><g id="cluster_Database Tables"><path d="M1624.5,572 L1740.5,572 A3.75,3.75 0 0 1 1743,574.5 L1750,595.6094 L2318.5,595.6094 A2.5,2.5 0 0 1 2321,598.1094 L2321,659.5 A2.5,2.5 0 0 1 2318.5,662 L1624.5,662 A2.5,2.5 0 0 1 1622,659.5 L1622,574.5 A2.5,2.5 0 0 1 1624.5,572 " fill="none" style="stroke:#000000;stroke-width:1.5;"/><line style="stroke:#000000;stroke-width:1.5;" x1="1622" x2="1750" y1="595.6094" y2="595.6094"/><text fill="#000000" font-family="sans-serif" font-size="14" font-weight="bold" lengthAdjust="spacing" textLength="115" x="1626" y="588.5332">Database Tables</text></g><!--entity Client (Web/Mobile App)--><g id="elem_Client (Web/Mobile App)"><rect fill="#F1F1F1" height="37.6094" rx="2.5" ry="2.5" style="stroke:#181818;stroke-width:0.5;" width="173" x="1037.5" y="203"/><text fill="#000000" font-family="sans-serif" font-size="14" lengthAdjust="spacing" textLength="153" x="1047.5" y="227.5332">Client (Web/Mobile App)</text></g><!--entity CourseController--><g id="elem_CourseController"><rect fill="#F1F1F1" height="37.6094" rx="2.5" ry="2.5" style="stroke:#181818;stroke-width:0.5;" width="128" x="654" y="301"/><text fill="#000000" font-family="sans-serif" font-size="14" lengthAdjust="spacing" textLength="108" x="664" y="325.5332">CourseController</text></g><!--entity LessonController--><g id="elem_LessonController"><rect fill="#F1F1F1" height="37.6094" rx="2.5" ry="2.5" style="stroke:#181818;stroke-width:0.5;" width="128" x="817" y="301"/><text fill="#000000" font-family="sans-serif" font-size="14" lengthAdjust="spacing" textLength="108" x="827" y="325.5332">LessonController</text></g><!--entity ModuleController--><g id="elem_ModuleController"><rect fill="#F1F1F1" height="37.6094" rx="2.5" ry="2.5" style="stroke:#181818;stroke-width:0.5;" width="128" x="980" y="301"/><text fill="#000000" font-family="sans-serif" font-size="14" lengthAdjust="spacing" textLength="108" x="990" y="325.5332">ModuleController</text></g><!--entity RatingController--><g id="elem_RatingController"><rect fill="#F1F1F1" height="37.6094" rx="2.5" ry="2.5" style="stroke:#181818;stroke-width:0.5;" width="123" x="1143.5" y="301"/><text fill="#000000" font-family="sans-serif" font-size="14" lengthAdjust="spacing" textLength="103" x="1153.5" y="325.5332">RatingController</text></g><!--entity TeacherController--><g id="elem_TeacherController"><rect fill="#F1F1F1" height="37.6094" rx="2.5" ry="2.5" style="stroke:#181818;stroke-width:0.5;" width="135" x="1301.5" y="301"/><text fill="#000000" font-family="sans-serif" font-size="14" lengthAdjust="spacing" textLength="115" x="1311.5" y="325.5332">TeacherController</text></g><!--entity TestController--><g id="elem_TestController"><rect fill="#F1F1F1" height="37.6094" rx="2.5" ry="2.5" style="stroke:#181818;stroke-width:0.5;" width="110" x="1472" y="301"/><text fill="#000000" font-family="sans-serif" font-size="14" lengthAdjust="spacing" textLength="90" x="1482" y="325.5332">TestController</text></g><!--entity CourseService--><g id="elem_CourseService"><rect fill="#F1F1F1" height="37.6094" rx="2.5" ry="2.5" style="stroke:#181818;stroke-width:0.5;" width="113" x="661.5" y="399"/><text fill="#000000" font-family="sans-serif" font-size="14" lengthAdjust="spacing" textLength="93" x="671.5" y="423.5332">CourseService</text></g><!--entity LessonService--><g id="elem_LessonService"><rect fill="#F1F1F1" height="37.6094" rx="2.5" ry="2.5" style="stroke:#181818;stroke-width:0.5;" width="113" x="824.5" y="399"/><text fill="#000000" font-family="sans-serif" font-size="14" lengthAdjust="spacing" textLength="93" x="834.5" y="423.5332">LessonService</text></g><!--entity ModuleService--><g id="elem_ModuleService"><rect fill="#F1F1F1" height="37.6094" rx="2.5" ry="2.5" style="stroke:#181818;stroke-width:0.5;" width="113" x="987.5" y="399"/><text fill="#000000" font-family="sans-serif" font-size="14" lengthAdjust="spacing" textLength="93" x="997.5" y="423.5332">ModuleService</text></g><!--entity RatingService--><g id="elem_RatingService"><rect fill="#F1F1F1" height="37.6094" rx="2.5" ry="2.5" style="stroke:#181818;stroke-width:0.5;" width="108" x="1151" y="399"/><text fill="#000000" font-family="sans-serif" font-size="14" lengthAdjust="spacing" textLength="88" x="1161" y="423.5332">RatingService</text></g><!--entity TeacherService--><g id="elem_TeacherService"><rect fill="#F1F1F1" height="37.6094" rx="2.5" ry="2.5" style="stroke:#181818;stroke-width:0.5;" width="120" x="1380" y="399"/><text fill="#000000" font-family="sans-serif" font-size="14" lengthAdjust="spacing" textLength="100" x="1390" y="423.5332">TeacherService</text></g><!--entity CourseRepository--><g id="elem_CourseRepository"><rect fill="#F1F1F1" height="37.6094" rx="2.5" ry="2.5" style="stroke:#181818;stroke-width:0.5;" width="134" x="1107" y="499.5"/><text fill="#000000" font-family="sans-serif" font-size="14" lengthAdjust="spacing" textLength="114" x="1117" y="524.0332">CourseRepository</text></g><!--entity LessonRepository--><g id="elem_LessonRepository"><rect fill="#F1F1F1" height="37.6094" rx="2.5" ry="2.5" style="stroke:#181818;stroke-width:0.5;" width="134" x="769" y="499.5"/><text fill="#000000" font-family="sans-serif" font-size="14" lengthAdjust="spacing" textLength="114" x="779" y="524.0332">LessonRepository</text></g><!--entity ContentSectionRepository--><g id="elem_ContentSectionRepository"><rect fill="#F1F1F1" height="37.6094" rx="2.5" ry="2.5" style="stroke:#181818;stroke-width:0.5;" width="185" x="548.5" y="499.5"/><text fill="#000000" font-family="sans-serif" font-size="14" lengthAdjust="spacing" textLength="165" x="558.5" y="524.0332">ContentSectionRepository</text></g><!--entity CourseMapperService--><g id="elem_CourseMapperService"><rect fill="#F1F1F1" height="37.6094" rx="2.5" ry="2.5" style="stroke:#181818;stroke-width:0.5;" width="161" x="22.5" y="499.5"/><text fill="#000000" font-family="sans-serif" font-size="14" lengthAdjust="spacing" textLength="141" x="32.5" y="524.0332">CourseMapperService</text></g><!--entity ModuleRepository--><g id="elem_ModuleRepository"><rect fill="#F1F1F1" height="37.6094" rx="2.5" ry="2.5" style="stroke:#181818;stroke-width:0.5;" width="134" x="938" y="499.5"/><text fill="#000000" font-family="sans-serif" font-size="14" lengthAdjust="spacing" textLength="114" x="948" y="524.0332">ModuleRepository</text></g><!--entity RatingRepository--><g id="elem_RatingRepository"><rect fill="#F1F1F1" height="37.6094" rx="2.5" ry="2.5" style="stroke:#181818;stroke-width:0.5;" width="129" x="1276.5" y="499.5"/><text fill="#000000" font-family="sans-serif" font-size="14" lengthAdjust="spacing" textLength="109" x="1286.5" y="524.0332">RatingRepository</text></g><!--entity TeacherRepository--><g id="elem_TeacherRepository"><rect fill="#F1F1F1" height="37.6094" rx="2.5" ry="2.5" style="stroke:#181818;stroke-width:0.5;" width="141" x="1440.5" y="499.5"/><text fill="#000000" font-family="sans-serif" font-size="14" lengthAdjust="spacing" textLength="121" x="1450.5" y="524.0332">TeacherRepository</text></g><g id="elem_GMN46"><path d="M218.5,497 L218.5,514.5 L183.65,518.5 L218.5,522.5 L218.5,539.7031 A0,0 0 0 0 218.5,539.7031 L513.5,539.7031 A0,0 0 0 0 513.5,539.7031 L513.5,507 L503.5,497 L218.5,497 A0,0 0 0 0 218.5,497 " fill="#FEFFDD" style="stroke:#181818;stroke-width:0.5;"/><path d="M503.5,497 L503.5,507 L513.5,507 L503.5,497 " fill="#FEFFDD" style="stroke:#181818;stroke-width:0.5;"/><text fill="#000000" font-family="sans-serif" font-size="13" lengthAdjust="spacing" textLength="132" x="224.5" y="515.4951">Maps Entities to DTOs</text><text fill="#000000" font-family="sans-serif" font-size="13" lengthAdjust="spacing" textLength="274" x="224.5" y="531.8467">(CourseDTO, LessonDTO, ContentSectionDTO)</text></g><!--entity CourseDTO--><g id="elem_CourseDTO"><rect fill="#F1F1F1" height="37.6094" rx="2.5" ry="2.5" style="stroke:#181818;stroke-width:0.5;" width="96" x="138" y="608"/><text fill="#000000" font-family="sans-serif" font-size="14" lengthAdjust="spacing" textLength="76" x="148" y="632.5332">CourseDTO</text></g><!--entity LessonDTO--><g id="elem_LessonDTO"><rect fill="#F1F1F1" height="37.6094" rx="2.5" ry="2.5" style="stroke:#181818;stroke-width:0.5;" width="96" x="269" y="608"/><text fill="#000000" font-family="sans-serif" font-size="14" lengthAdjust="spacing" textLength="76" x="279" y="632.5332">LessonDTO</text></g><!--entity ContentSectionDTO--><g id="elem_ContentSectionDTO"><rect fill="#F1F1F1" height="37.6094" rx="2.5" ry="2.5" style="stroke:#181818;stroke-width:0.5;" width="147" x="138.5" y="706"/><text fill="#000000" font-family="sans-serif" font-size="14" lengthAdjust="spacing" textLength="127" x="148.5" y="730.5332">ContentSectionDTO</text></g><!--entity Teachers--><g id="elem_Teachers"><rect fill="#F1F1F1" height="37.6094" rx="2.5" ry="2.5" style="stroke:#181818;stroke-width:0.5;" width="80" x="2225" y="608"/><text fill="#000000" font-family="sans-serif" font-size="14" lengthAdjust="spacing" textLength="60" x="2235" y="632.5332">Teachers</text></g><!--entity Courses--><g id="elem_Courses"><rect fill="#F1F1F1" height="37.6094" rx="2.5" ry="2.5" style="stroke:#181818;stroke-width:0.5;" width="73" x="2013.5" y="608"/><text fill="#000000" font-family="sans-serif" font-size="14" lengthAdjust="spacing" textLength="53" x="2023.5" y="632.5332">Courses</text></g><!--entity Modules--><g id="elem_Modules"><rect fill="#F1F1F1" height="37.6094" rx="2.5" ry="2.5" style="stroke:#181818;stroke-width:0.5;" width="73" x="1905.5" y="608"/><text fill="#000000" font-family="sans-serif" font-size="14" lengthAdjust="spacing" textLength="53" x="1915.5" y="632.5332">Modules</text></g><!--entity Lessons--><g id="elem_Lessons"><rect fill="#F1F1F1" height="37.6094" rx="2.5" ry="2.5" style="stroke:#181818;stroke-width:0.5;" width="73" x="1797.5" y="608"/><text fill="#000000" font-family="sans-serif" font-size="14" lengthAdjust="spacing" textLength="53" x="1807.5" y="632.5332">Lessons</text></g><!--entity ContentSections--><g id="elem_ContentSections"><rect fill="#F1F1F1" height="37.6094" rx="2.5" ry="2.5" style="stroke:#181818;stroke-width:0.5;" width="124" x="1638" y="608"/><text fill="#000000" font-family="sans-serif" font-size="14" lengthAdjust="spacing" textLength="104" x="1648" y="632.5332">ContentSections</text></g><!--entity Ratings--><g id="elem_Ratings"><rect fill="#F1F1F1" height="37.6094" rx="2.5" ry="2.5" style="stroke:#181818;stroke-width:0.5;" width="68" x="2122" y="608"/><text fill="#000000" font-family="sans-serif" font-size="14" lengthAdjust="spacing" textLength="48" x="2132" y="632.5332">Ratings</text></g><g id="elem_N1"><path d="M1245,111 L1245,137.3516 A0,0 0 0 0 1245,137.3516 L1471,137.3516 A0,0 0 0 0 1471,137.3516 L1471,121 L1461,111 L1362,111 L1358,45.06 L1354,111 L1245,111 A0,0 0 0 0 1245,111 " fill="#FEFFDD" style="stroke:#181818;stroke-width:0.5;"/><path d="M1461,111 L1461,121 L1471,121 L1461,111 " fill="#FEFFDD" style="stroke:#181818;stroke-width:0.5;"/><text fill="#000000" font-family="sans-serif" font-size="13" lengthAdjust="spacing" textLength="205" x="1251" y="129.4951">Spring Boot Application Entry Point</text></g><!--entity BackendApplication--><g id="elem_BackendApplication"><rect fill="#F1F1F1" height="37.6094" rx="2.5" ry="2.5" style="stroke:#181818;stroke-width:0.5;" width="144" x="1286" y="7"/><text fill="#000000" font-family="sans-serif" font-size="14" lengthAdjust="spacing" textLength="124" x="1296" y="31.5332">BackendApplication</text></g><!--entity GlobalExceptionHandler--><g id="elem_GlobalExceptionHandler"><rect fill="#F1F1F1" height="37.6094" rx="2.5" ry="2.5" style="stroke:#181818;stroke-width:0.5;" width="171" x="1038.5" y="105"/><text fill="#000000" font-family="sans-serif" font-size="14" lengthAdjust="spacing" textLength="151" x="1048.5" y="129.5332">GlobalExceptionHandler</text></g><g id="elem_GMN70"><path d="M1008.5,13 L1008.5,39.3516 A0,0 0 0 0 1008.5,39.3516 L1120,39.3516 L1124,104.71 L1128,39.3516 L1239.5,39.3516 A0,0 0 0 0 1239.5,39.3516 L1239.5,23 L1229.5,13 L1008.5,13 A0,0 0 0 0 1008.5,13 " fill="#FEFFDD" style="stroke:#181818;stroke-width:0.5;"/><path d="M1229.5,13 L1229.5,23 L1239.5,23 L1229.5,13 " fill="#FEFFDD" style="stroke:#181818;stroke-width:0.5;"/><text fill="#000000" font-family="sans-serif" font-size="13" lengthAdjust="spacing" textLength="210" x="1014.5" y="31.4951">Handles application-wide exceptions</text></g><!--link Client (Web/Mobile App) to CourseController--><g id="link_Client (Web/Mobile App)_CourseController"><path d="M1047.63,241.06 C970.91,259.2 859.8489,285.4591 787.8389,302.4891 " fill="none" id="Client (Web/Mobile App)-to-CourseController" style="stroke:#181818;stroke-width:1.0;"/><polygon fill="#181818" points="782,303.87,791.679,305.6913,786.8658,302.7193,789.8378,297.9061,782,303.87" style="stroke:#181818;stroke-width:1.0;"/></g><!--link Client (Web/Mobile App) to LessonController--><g id="link_Client (Web/Mobile App)_LessonController"><path d="M1078.29,241.06 C1034.99,258.17 975.8707,281.5263 932.4907,298.6563 " fill="none" id="Client (Web/Mobile App)-to-LessonController" style="stroke:#181818;stroke-width:1.0;"/><polygon fill="#181818" points="926.91,300.86,936.7501,301.2749,931.5605,299.0236,933.8118,293.834,926.91,300.86" style="stroke:#181818;stroke-width:1.0;"/></g><!--link Client (Web/Mobile App) to ModuleController--><g id="link_Client (Web/Mobile App)_ModuleController"><path d="M1108.95,241.06 C1094.74,258.11 1077.3706,278.9502 1063.0906,296.0902 " fill="none" id="Client (Web/Mobile App)-to-ModuleController" style="stroke:#181818;stroke-width:1.0;"/><polygon fill="#181818" points="1059.25,300.7,1068.084,296.3457,1062.4505,296.8585,1061.9377,291.225,1059.25,300.7" style="stroke:#181818;stroke-width:1.0;"/></g><!--link Client (Web/Mobile App) to RatingController--><g id="link_Client (Web/Mobile App)_RatingController"><path d="M1139.24,241.06 C1153.63,258.11 1171.2311,278.974 1185.6911,296.114 " fill="none" id="Client (Web/Mobile App)-to-RatingController" style="stroke:#181818;stroke-width:1.0;"/><polygon fill="#181818" points="1189.56,300.7,1186.8139,291.2417,1186.3359,296.8783,1180.6993,296.4003,1189.56,300.7" style="stroke:#181818;stroke-width:1.0;"/></g><!--link Client (Web/Mobile App) to TeacherController--><g id="link_Client (Web/Mobile App)_TeacherController"><path d="M1170.08,241.06 C1213.75,258.17 1273.3933,281.5416 1317.1233,298.6716 " fill="none" id="Client (Web/Mobile App)-to-TeacherController" style="stroke:#181818;stroke-width:1.0;"/><polygon fill="#181818" points="1322.71,300.86,1315.7889,293.8529,1318.0544,299.0363,1312.8711,301.3018,1322.71,300.86" style="stroke:#181818;stroke-width:1.0;"/></g><!--link Client (Web/Mobile App) to TestController--><g id="link_Client (Web/Mobile App)_TestController"><path d="M1201.4,241.07 C1268.3,256.75 1367.59,280.13 1454,301 C1459.71,302.38 1459.8412,302.4071 1465.7812,303.8571 " fill="none" id="Client (Web/Mobile App)-to-TestController" style="stroke:#181818;stroke-width:1.0;"/><polygon fill="#181818" points="1471.61,305.28,1463.8153,299.2598,1466.7526,304.0943,1461.9182,307.0316,1471.61,305.28" style="stroke:#181818;stroke-width:1.0;"/></g><!--link CourseController to CourseService--><g id="link_CourseController_CourseService"><path d="M718,339.06 C718,356.11 718,375.56 718,392.7 " fill="none" id="CourseController-to-CourseService" style="stroke:#181818;stroke-width:1.0;"/><polygon fill="#181818" points="718,398.7,722,389.7,718,393.7,714,389.7,718,398.7" style="stroke:#181818;stroke-width:1.0;"/></g><!--link LessonController to LessonService--><g id="link_LessonController_LessonService"><path d="M881,339.06 C881,356.11 881,375.56 881,392.7 " fill="none" id="LessonController-to-LessonService" style="stroke:#181818;stroke-width:1.0;"/><polygon fill="#181818" points="881,398.7,885,389.7,881,393.7,877,389.7,881,398.7" style="stroke:#181818;stroke-width:1.0;"/></g><!--link ModuleController to ModuleService--><g id="link_ModuleController_ModuleService"><path d="M1044,339.06 C1044,356.11 1044,375.56 1044,392.7 " fill="none" id="ModuleController-to-ModuleService" style="stroke:#181818;stroke-width:1.0;"/><polygon fill="#181818" points="1044,398.7,1048,389.7,1044,393.7,1040,389.7,1044,398.7" style="stroke:#181818;stroke-width:1.0;"/></g><!--link RatingController to RatingService--><g id="link_RatingController_RatingService"><path d="M1205,339.06 C1205,356.11 1205,375.56 1205,392.7 " fill="none" id="RatingController-to-RatingService" style="stroke:#181818;stroke-width:1.0;"/><polygon fill="#181818" points="1205,398.7,1209,389.7,1205,393.7,1201,389.7,1205,398.7" style="stroke:#181818;stroke-width:1.0;"/></g><!--link TeacherController to TeacherService--><g id="link_TeacherController_TeacherService"><path d="M1382.35,339.06 C1394.97,356.11 1410.2234,376.7351 1422.8934,393.8751 " fill="none" id="TeacherController-to-TeacherService" style="stroke:#181818;stroke-width:1.0;"/><polygon fill="#181818" points="1426.46,398.7,1424.3267,389.085,1423.4878,394.6793,1417.8935,393.8404,1426.46,398.7" style="stroke:#181818;stroke-width:1.0;"/></g><!--link CourseService to CourseRepository--><g id="link_CourseService_CourseRepository"><path d="M774.59,430.63 C863.16,448.87 1030.55,483.52 1090,497 C1095.42,498.23 1095.1807,498.1506 1100.8107,499.4806 " fill="none" id="CourseService-to-CourseRepository" style="stroke:#181818;stroke-width:1.0;"/><polygon fill="#181818" points="1106.65,500.86,1098.8107,494.898,1101.7839,499.7105,1096.9715,502.6837,1106.65,500.86" style="stroke:#181818;stroke-width:1.0;"/></g><!--link CourseService to LessonRepository--><g id="link_CourseService_LessonRepository"><path d="M739.64,437.07 C760.8,454.73 788.2439,477.6351 809.4839,495.3651 " fill="none" id="CourseService-to-LessonRepository" style="stroke:#181818;stroke-width:1.0;"/><polygon fill="#181818" points="814.09,499.21,809.7441,490.3718,810.2516,496.0059,804.6175,496.5133,814.09,499.21" style="stroke:#181818;stroke-width:1.0;"/></g><!--link CourseService to ContentSectionRepository--><g id="link_CourseService_ContentSectionRepository"><path d="M703.88,437.07 C690.07,454.73 672.8569,476.7542 658.9869,494.4842 " fill="none" id="CourseService-to-ContentSectionRepository" style="stroke:#181818;stroke-width:1.0;"/><polygon fill="#181818" points="655.29,499.21,663.9859,494.586,658.3708,495.2719,657.6849,489.6567,655.29,499.21" style="stroke:#181818;stroke-width:1.0;"/></g><!--link CourseService to CourseMapperService--><g id="link_CourseService_CourseMapperService"><path d="M661.22,426.5 C565.86,439.33 367.62,467.03 201,497 C195.35,498.02 195.4296,497.9642 189.5696,499.1042 " fill="none" id="CourseService-to-CourseMapperService" style="stroke:#181818;stroke-width:1.0;"/><polygon fill="#181818" points="183.68,500.25,193.2782,502.4578,188.588,499.2952,191.7505,494.605,183.68,500.25" style="stroke:#181818;stroke-width:1.0;"/></g><!--link LessonService to LessonRepository--><g id="link_LessonService_LessonRepository"><path d="M872.75,437.07 C864.68,454.73 854.9558,476.0237 846.8458,493.7537 " fill="none" id="LessonService-to-LessonRepository" style="stroke:#181818;stroke-width:1.0;"/><polygon fill="#181818" points="844.35,499.21,851.7312,492.6894,846.4298,494.6631,844.4562,489.3617,844.35,499.21" style="stroke:#181818;stroke-width:1.0;"/></g><!--link LessonService to ModuleRepository--><g id="link_LessonService_ModuleRepository"><path d="M903.74,437.07 C925.98,454.73 954.9511,477.749 977.2811,495.479 " fill="none" id="LessonService-to-ModuleRepository" style="stroke:#181818;stroke-width:1.0;"/><polygon fill="#181818" points="981.98,499.21,977.4189,490.4809,978.0642,496.1009,972.4443,496.7462,981.98,499.21" style="stroke:#181818;stroke-width:1.0;"/></g><!--link ModuleService to ModuleRepository--><g id="link_ModuleService_ModuleRepository"><path d="M1036.85,437.07 C1029.85,454.73 1021.4688,475.9014 1014.4488,493.6314 " fill="none" id="ModuleService-to-ModuleRepository" style="stroke:#181818;stroke-width:1.0;"/><polygon fill="#181818" points="1012.24,499.21,1019.2723,492.3146,1014.0807,494.5611,1011.8341,489.3695,1012.24,499.21" style="stroke:#181818;stroke-width:1.0;"/></g><!--link ModuleService to CourseRepository--><g id="link_ModuleService_CourseRepository"><path d="M1067.84,437.07 C1091.15,454.73 1121.677,477.8575 1145.087,495.5875 " fill="none" id="ModuleService-to-CourseRepository" style="stroke:#181818;stroke-width:1.0;"/><polygon fill="#181818" points="1149.87,499.21,1145.1105,490.5875,1145.8841,496.1912,1140.2804,496.9649,1149.87,499.21" style="stroke:#181818;stroke-width:1.0;"/></g><!--link RatingService to RatingRepository--><g id="link_RatingService_RatingRepository"><path d="M1229.94,437.07 C1254.33,454.73 1286.4,477.9615 1310.89,495.6915 " fill="none" id="RatingService-to-RatingRepository" style="stroke:#181818;stroke-width:1.0;"/><polygon fill="#181818" points="1315.75,499.21,1310.8056,490.6922,1311.7,496.2779,1306.1143,497.1722,1315.75,499.21" style="stroke:#181818;stroke-width:1.0;"/></g><!--link RatingService to CourseRepository--><g id="link_RatingService_CourseRepository"><path d="M1199.31,437.07 C1193.76,454.73 1187.1442,475.7577 1181.5542,493.4877 " fill="none" id="RatingService-to-CourseRepository" style="stroke:#181818;stroke-width:1.0;"/><polygon fill="#181818" points="1179.75,499.21,1186.2711,491.8293,1181.2535,494.4414,1178.6414,489.4237,1179.75,499.21" style="stroke:#181818;stroke-width:1.0;"/></g><!--link TeacherService to TeacherRepository--><g id="link_TeacherService_TeacherRepository"><path d="M1453.02,437.07 C1465.75,454.73 1481.5316,476.6127 1494.3116,494.3427 " fill="none" id="TeacherService-to-TeacherRepository" style="stroke:#181818;stroke-width:1.0;"/><polygon fill="#181818" points="1497.82,499.21,1495.8022,489.57,1494.8963,495.1539,1489.3125,494.248,1497.82,499.21" style="stroke:#181818;stroke-width:1.0;"/></g><!--link CourseMapperService to DTOs--><g id="link_CourseMapperService_DTOs"><path d="M103,537.57 C103,544.9275 103,553.9081 103,563.2941 C103,563.4407 103,545.5875 103,545.7343 " fill="none" id="CourseMapperService-to-DTOs" style="stroke:#181818;stroke-width:1.0;"/><polygon fill="none" points="103,563.7343,109,545.7343,97,545.7343,103,563.7343" style="stroke:#181818;stroke-width:1.0;"/></g><!--link TeacherRepository to Teachers--><g id="link_TeacherRepository_Teachers"><path d="M1581.59,518.94 C1747.78,518.1 2153.81,519.08 2208,548 C2232.12,560.87 2246.0716,583.5528 2254.8916,602.2628 " fill="none" id="TeacherRepository-to-Teachers" style="stroke:#181818;stroke-width:1.0;"/><polygon fill="#181818" points="2257.45,607.69,2257.2305,597.8436,2255.318,603.1673,2249.9942,601.2548,2257.45,607.69" style="stroke:#181818;stroke-width:1.0;"/></g><!--link CourseRepository to Courses--><g id="link_CourseRepository_Courses"><path d="M1241.02,537.14 C1247.07,538.29 1253.13,539.27 1259,540 C1279.32,542.53 1977.92,538.4 1996,548 C2019.86,560.67 2032.9578,583.5903 2040.9778,602.4103 " fill="none" id="CourseRepository-to-Courses" style="stroke:#181818;stroke-width:1.0;"/><polygon fill="#181818" points="2043.33,607.93,2043.4815,598.0823,2041.3698,603.3302,2036.1219,601.2186,2043.33,607.93" style="stroke:#181818;stroke-width:1.0;"/></g><!--link ModuleRepository to Modules--><g id="link_ModuleRepository_Modules"><path d="M1072.02,537.15 C1078.07,538.29 1084.12,539.27 1090,540 C1112,542.73 1868.42,537.61 1888,548 C1911.86,560.66 1924.9543,583.5918 1932.9843,602.4018 " fill="none" id="ModuleRepository-to-Modules" style="stroke:#181818;stroke-width:1.0;"/><polygon fill="#181818" points="1935.34,607.92,1935.4852,598.0722,1933.3769,603.3215,1928.1276,601.2132,1935.34,607.92" style="stroke:#181818;stroke-width:1.0;"/></g><!--link LessonRepository to Lessons--><g id="link_LessonRepository_Lessons"><path d="M903.02,537.15 C909.07,538.29 915.12,539.27 921,540 C944.68,542.93 1758.92,536.83 1780,548 C1803.87,560.65 1816.9678,583.5803 1824.9878,602.4003 " fill="none" id="LessonRepository-to-Lessons" style="stroke:#181818;stroke-width:1.0;"/><polygon fill="#181818" points="1827.34,607.92,1827.4915,598.0723,1825.3798,603.3202,1820.1319,601.2086,1827.34,607.92" style="stroke:#181818;stroke-width:1.0;"/></g><!--link ContentSectionRepository to ContentSections--><g id="link_ContentSectionRepository_ContentSections"><path d="M733.56,537.25 C739.79,538.25 745.98,539.17 752,540 C1084.56,585.69 1480.2213,612.6514 1631.9513,621.9914 " fill="none" id="ContentSectionRepository-to-ContentSections" style="stroke:#181818;stroke-width:1.0;"/><polygon fill="#181818" points="1637.94,622.36,1629.2028,617.8146,1632.9494,622.0528,1628.7112,625.7995,1637.94,622.36" style="stroke:#181818;stroke-width:1.0;"/></g><!--link RatingRepository to Ratings--><g id="link_RatingRepository_Ratings"><path d="M1405.64,537.14 C1411.47,538.28 1417.32,539.27 1423,540 C1441.76,542.42 2087.37,538.98 2104,548 C2127.46,560.73 2139.9579,583.5947 2147.5279,602.3847 " fill="none" id="RatingRepository-to-Ratings" style="stroke:#181818;stroke-width:1.0;"/><polygon fill="#181818" points="2149.77,607.95,2150.117,598.1073,2147.9016,603.3122,2142.6966,601.0968,2149.77,607.95" style="stroke:#181818;stroke-width:1.0;"/></g><!--link GlobalExceptionHandler to Client (Web/Mobile App)--><!--SRC=[bLJ1ZjCm4BtxAqOzxKgqYEiUaDXb1GSAQ5k9GucGamojjLcFPNiNAk3V6SVTrguJQ7DAnk_DZD-RZBjNsaWh7w2X1qCQjL_uROTWiV5IhpiKmiZcNguH9WoPQNgItunY95etyoYRZTBh2VmI0lXPtNIASy355wnVpgbMdEgDCPSLJAUl-PGUhSCRqjvIrw6jJY5zGET8dqcQK_lOdLlfJdg-p9caPT00xTaivrFAZdEiJohR0ksJQd2Nlb0b5Ik75bga4kNGGe5Kc1nQtZlJOmzER_OSJAzrXuQSycItrJWqNkiaQ6WeZ34Fi3gP4c9pQKpHTwxdFviPWaQDKsXgoV-mez1IkTI-71jZHTeXw5ZQ8qipdqlqa9fC-SsSjyjFBjRNv7d9gFN60tqVvbm1VpkurLvvXGuyGU1_rHSHpHyl88hUl-R6S-XIY3_9-WhaiAZsBN8WDBFQvwZYsL6QAiyYlQobGrZAkiDTmeD6BXipbtdeia4v8DDwBhF7zRK7fCuiO5HfNUfe01JJbGvT01HJdGvxB37oOmtzTu5GJ5uwa0mGef-2oS9O3i0raGyhibED32c2ytOBdqbfFm7fuEChiRfc7r2t2Qo2sQm_UjTHBRlRdmsQ47ylTHktqcgZsXPrrNSvifLZAvvCFuuZgQuWlZcGX_hJ7wf5m6Ui4ty1]--></g></svg>